<?xml version="1.0" encoding="UTF-8" standalone="no"?>
<svg
   version="1.0"
   width="1920.000000pt"
   height="1080.000000pt"
   viewBox="0 0 1920.000000 1080.000000"
   preserveAspectRatio="xMidYMid meet"
   id="svg74"
   sodipodi:docname="wallpaper_mementomori.svg"
   inkscape:version="1.1 (c4e8f9ed74, 2021-05-24)"
   inkscape:export-filename="/home/ylan/.cache/wal/wallpaper_mementomori.png"
   inkscape:export-xdpi="96"
   inkscape:export-ydpi="96"
   xmlns:inkscape="http://www.inkscape.org/namespaces/inkscape"
   xmlns:sodipodi="http://sodipodi.sourceforge.net/DTD/sodipodi-0.dtd"
   xmlns="http://www.w3.org/2000/svg"
   xmlns:svg="http://www.w3.org/2000/svg">
  <defs
     id="defs78" />
  <sodipodi:namedview
     id="namedview76"
     pagecolor="{color1}"
     bordercolor="{color1}"
     borderopacity="1.0"
     inkscape:pageshadow="2"
     inkscape:pageopacity="0.54117647"
     inkscape:pagecheckerboard="0"
     inkscape:document-units="pt"
     showgrid="false"
     inkscape:zoom="0.48541667"
     inkscape:cx="293.56223"
     inkscape:cy="830.21459"
     inkscape:window-width="1896"
     inkscape:window-height="1016"
     inkscape:window-x="12"
     inkscape:window-y="52"
     inkscape:window-maximized="1"
     inkscape:current-layer="svg74" />
  <metadata
     id="metadata2">
Created by potrace 1.16, written by Peter Selinger 2001-2019
</metadata>
  <g
     transform="translate(0.000000,1080.000000) scale(0.100000,-0.100000)"
     fill="{color0}"
     stroke="none"
     id="g72">
    <path
       d="M9307 8545 c-136 -22 -303 -65 -400 -101 -206 -79 -660 -326 -869 -474 -183 -130 -484 -442 -611 -635 -92 -141 -263 -481 -306 -611 -74 -220 -94 -499 -89 -1239 l4 -500 38 -160 c45 -191 44 -216 -14 -294 -55 -76 -90 -149 -90 -191 0 -20 7 -62 15 -93 8 -32 18 -83 21 -115 12 -116 29 -140 126 -176 65 -24 105 -64 113 -112 13 -81 27 -114 71 -163 26 -29 43 -55 40 -59 -4 -4 -219 -5 -477 -4 l-470 3 7 -1038 6 -1038 386 -6 c213 -3 659 -12 992 -19 996 -21 4865 -1 5059 26 l43 6 -7 996 c-4 548 -10 1000 -14 1004 -4 4 -224 9 -489 10 -265 2 -482 6 -482 9 0 3 23 44 52 90 28 46 62 107 75 134 14 28 32 66 41 85 10 20 44 55 82 83 146 107 141 99 150 212 5 55 14 130 20 168 l10 67 -53 78 c-82 116 -80 111 -62 197 8 41 15 89 15 108 0 19 7 47 15 63 27 56 38 288 32 729 -6 516 -28 755 -89 960 -28 96 -147 402 -201 516 -92 198 -222 380 -409 574 -136 142 -272 252 -478 390 -565 376 -979 519 -1530 531 -129 2 -211 -1 -273 -11z m657 -120 c119 -22 293 -67 386 -100 85 -31 300 -131 300 -140 0 -3 -12 1 -27 9 -83 42 -318 130 -444 166 -217 61 -285 71 -574 80 l-260 8 265 -3 c192 -2 290 -8 354 -20z m-679 4 c-33 -5 -100 -20 -149 -34 -49 -14 -91 -24 -93 -22 -2 2 41 17 94 32 54 15 103 29 108 30 6 2 30 3 55 3 43 0 42 -1 -15 -9z m602 -80 c275 -37 676 -186 963 -359 337 -202 620 -429 800 -640 43 -51 26 -38 -80 62 -228 214 -369 323 -385 298 -4 -6 77 -96 182 -203 206 -209 281 -293 383 -432 79 -106 259 -395 247 -395 -3 0 -33 39 -68 88 -82 112 -291 361 -362 431 -50 49 -77 59 -77 28 0 -7 23 -41 51 -77 196 -249 350 -471 463 -662 50 -86 107 -205 73 -154 -6 10 -38 60 -71 110 -101 156 -276 387 -363 479 -43 45 -83 62 -83 34 0 -7 39 -69 86 -137 134 -196 286 -444 349 -570 66 -131 127 -271 122 -277 -3 -2 -30 45 -61 105 -110 210 -224 387 -373 580 -35 45 -71 82 -79 82 -27 0 -14 -39 39 -117 171 -253 329 -537 430 -774 68 -159 66 -167 -6 -24 -79 158 -152 275 -262 420 -113 151 -149 190 -164 181 -19 -12 -4 -44 68 -141 126 -169 258 -403 335 -595 53 -131 53 -135 8 -54 -123 220 -319 504 -347 504 -20 0 -19 -33 1 -73 10 -18 55 -96 101 -175 113 -194 256 -482 239 -482 -5 0 -165 255 -172 274 -3 8 -14 16 -24 19 -21 5 -67 93 -209 398 l-91 197 0 158 c0 155 -9 208 -35 206 -12 -2 -57 -317 -50 -356 7 -40 143 -376 269 -664 137 -313 147 -347 153 -537 6 -181 -1 -223 -42 -245 -46 -25 -46 -80 0 -176 42 -86 65 -103 119 -87 27 8 42 7 73 -7 83 -37 204 -178 202 -235 0 -11 -3 -14 -6 -7 -8 19 -24 15 -140 -34 -104 -45 -364 -135 -429 -148 -29 -7 -32 -5 -38 25 -3 17 -6 73 -6 124 l0 92 -109 144 c-142 189 -141 188 -234 198 -53 6 -89 17 -119 35 -55 33 -124 93 -117 101 3 3 63 -8 132 -25 69 -16 133 -30 143 -30 21 0 126 63 172 104 19 17 53 55 75 85 l41 55 -2 136 c-6 324 -31 537 -76 635 -28 61 -111 146 -211 217 -114 81 -177 108 -269 118 -94 10 -342 48 -371 57 -11 3 -40 15 -65 26 -95 42 -166 30 -186 -33 -9 -28 -23 -42 -70 -67 -32 -18 -77 -38 -99 -45 -49 -14 -79 -39 -116 -97 -26 -41 -29 -53 -29 -135 0 -94 -25 -384 -34 -393 -9 -9 -26 73 -26 129 0 57 -22 100 -42 80 -18 -18 -30 -127 -19 -169 27 -99 163 -255 336 -386 113 -85 321 -190 422 -213 90 -20 139 -55 243 -178 40 -47 78 -87 86 -90 7 -3 50 -10 96 -16 46 -6 98 -16 116 -21 36 -12 117 -105 177 -204 34 -57 35 -63 35 -154 0 -53 -4 -102 -9 -109 -5 -8 -58 -21 -127 -32 -65 -11 -144 -24 -174 -30 -114 -21 -201 -84 -282 -203 -59 -86 -76 -132 -89 -237 -6 -52 -12 -97 -14 -98 -8 -9 -28 48 -66 185 -22 81 -49 173 -60 204 -22 61 -60 114 -76 108 -11 -4 18 -168 58 -331 11 -48 19 -92 17 -98 -4 -13 -71 36 -95 69 -9 14 -20 43 -24 65 -18 96 -80 384 -93 431 -18 58 -39 91 -54 82 -12 -8 -9 -35 29 -267 16 -96 29 -197 29 -225 l-1 -50 -23 27 c-25 28 -24 21 -81 427 -24 169 -42 227 -68 218 -7 -2 -11 -15 -9 -28 7 -65 14 -539 7 -539 -16 0 -73 41 -80 58 -10 27 -16 125 -24 432 -6 240 -10 290 -24 318 -10 17 -22 32 -27 32 -6 0 -10 -48 -10 -117 0 -127 -16 -480 -25 -578 -9 -89 -10 -90 -102 -79 l-78 9 -6 100 c-8 125 -26 215 -44 215 -16 0 -23 -36 -31 -176 l-7 -112 -36 -6 c-20 -3 -52 -6 -72 -6 l-36 0 -6 63 c-4 34 -10 117 -13 185 -8 138 -7 139 61 97 66 -41 120 -30 232 47 37 25 45 37 62 96 76 256 70 335 -51 596 -111 239 -129 302 -152 524 -9 78 -20 151 -26 163 -6 11 -23 24 -38 30 -36 14 -211 14 -245 0 -36 -14 -53 -56 -62 -151 -23 -262 -46 -351 -150 -570 -97 -205 -109 -249 -95 -371 13 -112 41 -225 74 -300 18 -42 32 -58 61 -72 63 -30 115 -32 172 -7 29 12 57 19 62 15 7 -4 11 -64 11 -164 l0 -158 -31 -7 c-17 -3 -60 -6 -95 -6 l-63 0 -5 43 c-3 23 -8 73 -11 111 -6 74 -18 106 -38 106 -31 0 -37 -25 -37 -142 0 -102 -2 -119 -17 -126 -24 -13 -123 -35 -128 -30 -12 12 -35 307 -35 443 0 172 -7 247 -24 242 -6 -1 -21 -23 -34 -47 -22 -44 -23 -51 -21 -340 l1 -294 -38 -17 c-70 -31 -67 -46 -63 234 4 219 2 252 -11 252 -22 0 -36 -68 -66 -319 -27 -231 -38 -277 -74 -296 -22 -12 -22 -11 -16 32 8 55 9 348 1 356 -15 16 -28 -31 -55 -213 -17 -110 -35 -215 -41 -232 -10 -31 -91 -113 -111 -113 -12 0 -3 63 29 210 40 182 40 180 9 180 -34 0 -40 -13 -86 -193 -21 -85 -45 -169 -53 -188 l-14 -34 -11 52 c-38 175 -192 392 -300 423 -20 6 -120 13 -220 17 -127 4 -188 10 -196 19 -8 7 -16 53 -19 109 l-7 97 82 107 c143 188 160 201 265 201 107 1 150 13 186 52 52 56 310 234 635 438 102 65 226 167 335 278 l79 79 -4 126 c-1 69 -6 129 -11 133 -14 14 -28 -13 -48 -92 -41 -158 -46 -150 -53 87 -4 118 -9 254 -12 302 l-6 88 -60 49 c-34 27 -87 58 -122 70 -86 31 -110 48 -95 66 16 20 -1 38 -52 53 -37 11 -45 11 -68 -7 -69 -50 -141 -68 -467 -111 -157 -21 -183 -31 -294 -116 -69 -53 -203 -192 -227 -237 -16 -30 -18 -71 -23 -436 l-5 -403 25 -23 c14 -13 54 -45 90 -72 36 -27 84 -66 107 -87 l42 -38 137 31 c75 17 144 30 153 28 19 -4 -87 -82 -169 -124 -46 -23 -72 -29 -156 -33 l-102 -6 -91 -110 c-160 -192 -181 -236 -181 -386 0 -50 -4 -91 -10 -94 -12 -8 -238 99 -383 181 -61 35 -106 54 -118 51 -10 -3 -19 -3 -19 1 0 23 168 272 184 272 6 0 22 -7 34 -16 41 -28 63 -15 126 77 l58 87 -32 188 c-43 251 -43 336 -1 466 60 184 172 454 269 647 93 185 97 196 96 255 -2 76 -31 249 -51 296 -21 52 -29 25 -36 -120 -4 -69 -13 -147 -20 -175 -32 -116 -254 -601 -315 -690 -27 -38 -70 -107 -96 -152 -101 -176 -59 -70 99 252 68 138 125 259 127 269 1 10 -2 21 -9 23 -14 5 -86 -95 -190 -264 -41 -68 -77 -123 -79 -123 -9 0 136 277 207 395 111 186 164 306 130 293 -16 -5 -157 -194 -252 -335 -49 -73 -91 -133 -94 -133 -7 0 10 41 54 128 62 122 134 242 246 407 97 141 155 241 155 265 0 27 -35 4 -85 -57 -85 -104 -254 -344 -339 -483 -42 -68 -76 -121 -76 -117 0 13 102 227 158 332 66 123 164 273 250 384 70 90 102 144 102 173 0 26 -29 22 -40 -4 -5 -13 -41 -59 -81 -103 -89 -100 -217 -263 -294 -375 -105 -152 -92 -120 36 96 109 184 227 340 357 476 54 55 64 88 28 88 -55 0 -291 -264 -454 -506 -6 -11 1 8 17 42 60 124 202 316 362 490 149 163 183 214 142 214 -25 0 -108 -67 -248 -201 -66 -63 -113 -105 -105 -94 83 112 386 424 567 584 89 78 149 149 137 161 -13 13 -91 -34 -255 -155 -177 -130 -121 -78 94 88 244 188 378 278 592 394 253 137 463 219 675 263 124 26 154 28 362 29 125 1 262 -4 305 -10z m-1292 -2226 c-27 -2 -113 -10 -189 -18 -77 -8 -142 -13 -144 -10 -3 3 1 5 9 6 8 0 59 6 114 13 55 8 136 13 180 13 47 0 59 -2 30 -4z m368 -46 c31 -21 87 -93 87 -111 0 -6 -21 12 -48 39 -26 28 -63 63 -82 78 -31 24 -32 27 -10 21 14 -4 38 -16 53 -27z m-716 7 c-3 -3 -12 -4 -19 -1 -8 3 -5 6 6 6 11 1 17 -2 13 -5z m2182 2 c-2 -2 -31 -25 -64 -50 -33 -25 -75 -57 -92 -72 -18 -15 -33 -22 -33 -17 0 16 63 70 124 107 53 32 77 44 65 32z m556 -21 c50 -9 109 -25 131 -36 47 -22 276 -246 301 -293 13 -25 17 -69 19 -231 l2 -200 -8 181 c-10 237 -13 243 -168 392 -146 140 -198 169 -333 183 -52 5 -134 13 -184 18 l-90 10 120 -4 c66 -2 161 -11 210 -20z m-2825 -22 c-76 -50 -243 -219 -270 -273 -23 -44 -24 -52 -24 -340 -1 -162 -4 -272 -8 -245 -9 73 -9 448 1 535 l9 75 116 112 c110 105 196 173 220 173 6 0 -14 -16 -44 -37z m523 -30 c-7 -2 -21 -2 -30 0 -10 3 -4 5 12 5 17 0 24 -2 18 -5z m-238 -18 c-49 -7 -103 -18 -119 -24 -90 -36 -254 -190 -298 -280 -21 -42 -23 -63 -28 -261 -5 -208 -5 -212 -14 -116 -12 138 -3 333 17 371 43 84 128 174 226 240 104 70 140 82 256 83 38 0 29 -3 -40 -13z m2370 -44 c52 -11 -184 -12 -270 -1 -47 5 -29 7 85 8 80 0 163 -3 185 -7z m140 -26 c76 -20 147 -67 243 -162 61 -60 66 -66 24 -32 -168 137 -225 173 -317 195 -27 7 -41 13 -30 13 12 1 48 -6 80 -14z m-1315 -766 c-6 -228 -12 -475 -13 -549 -2 -74 -4 79 -5 340 -2 475 3 649 20 632 4 -4 4 -191 -2 -423z m1677 319 c-2 -13 -4 -5 -4 17 -1 22 1 32 4 23 2 -10 2 -28 0 -40z m-4011 -154 c-40 -115 -64 -174 -71 -174 -4 0 28 94 87 253 6 15 12 26 14 24 3 -2 -11 -49 -30 -103z m4021 -36 c-2 -29 -3 -8 -3 47 0 55 1 79 3 53 2 -26 2 -71 0 -100z m744 -147 c41 -117 8 -59 -50 87 -23 56 -41 108 -41 115 1 15 65 -128 91 -202z m-4758 -59 c-9 -27 -57 -102 -65 -102 -8 0 22 74 43 108 15 24 31 20 22 -6z m4716 -122 c11 -24 11 -24 -3 -6 -9 11 -16 24 -16 30 0 12 5 7 19 -24z m-4708 -87 c-5 -10 -17 -27 -26 -38 -16 -19 -16 -19 -4 5 13 27 29 50 36 50 2 0 -1 -8 -6 -17z m4709 -108 c0 -5 -9 4 -20 20 -11 17 -20 37 -20 45 1 16 39 -48 40 -65z m-4688 -47 c-7 -7 -12 -8 -12 -2 0 14 12 26 19 19 2 -3 -1 -11 -7 -17z m4892 -465 c-21 -154 -32 -173 -138 -246 l-59 -40 -141 11 c-168 13 -206 24 -206 58 0 26 35 68 49 59 5 -2 12 -21 16 -41 l6 -37 47 6 c56 7 257 68 309 94 33 16 38 25 49 72 8 38 20 60 40 77 16 13 30 23 31 24 1 0 -1 -17 -3 -37z m-5152 5 c10 -13 31 -47 45 -76 29 -62 51 -77 181 -129 l93 -37 34 18 c35 19 98 17 118 -3 14 -14 -10 -41 -50 -58 -65 -27 -131 -13 -280 58 -69 33 -86 46 -108 82 -20 35 -65 148 -65 164 0 9 14 1 32 -19z m4493 -202 c14 -21 14 -33 -5 -127 -11 -57 -20 -111 -20 -120 0 -9 25 -33 55 -53 l55 -36 43 21 c97 49 147 88 147 113 0 29 16 36 86 36 36 0 54 -4 55 -12 3 -34 -6 -58 -47 -123 -122 -190 -257 -499 -294 -669 -30 -144 -90 -515 -97 -609 -6 -72 -5 -80 10 -74 13 5 17 1 17 -18 0 -46 -51 -320 -71 -383 -18 -53 -26 -65 -57 -81 -45 -23 -130 -47 -197 -56 -27 -4 -90 -23 -140 -42 -49 -20 -115 -44 -145 -54 -73 -26 -488 -144 -573 -163 -133 -31 -226 -17 -494 74 -82 27 -167 52 -190 56 -56 9 -161 -16 -342 -79 l-146 -52 -140 1 c-247 2 -463 44 -775 149 -204 69 -297 92 -412 101 l-77 6 -16 71 c-22 94 -75 367 -75 384 0 7 7 13 17 13 14 0 15 11 10 98 -6 100 -58 422 -103 642 -48 234 -123 422 -230 582 -73 109 -86 135 -94 186 l-7 42 53 0 c51 0 54 -2 68 -32 20 -48 89 -130 135 -163 74 -51 161 -18 161 62 0 19 -10 81 -21 139 -12 58 -20 106 -18 108 2 2 21 1 42 -2 28 -3 44 -13 63 -37 38 -51 90 -186 133 -351 90 -344 249 -670 341 -703 18 -6 53 -11 77 -11 34 0 49 -6 67 -25 25 -27 62 -113 52 -122 -17 -17 -247 89 -287 134 -63 67 -153 299 -235 606 -48 180 -71 247 -85 247 -5 0 -9 -11 -9 -25 0 -45 122 -603 172 -788 25 -92 28 -95 191 -172 139 -65 263 -108 292 -101 21 5 24 -1 45 -77 41 -145 70 -195 87 -151 3 9 -7 70 -22 136 -26 111 -27 121 -12 136 24 23 32 10 63 -98 31 -110 49 -150 68 -150 33 0 35 25 10 140 -29 134 -28 164 3 168 29 4 37 -13 62 -137 12 -57 26 -110 32 -118 12 -14 45 -18 53 -5 2 4 -5 65 -17 136 -20 125 -20 129 -2 142 46 34 66 2 100 -155 15 -72 32 -134 36 -137 12 -7 49 33 49 54 0 9 -7 60 -15 112 -20 131 -20 162 3 158 40 -7 79 -137 131 -442 12 -65 26 -125 33 -133 6 -8 23 -13 37 -11 24 3 26 8 29 52 2 27 -4 94 -12 148 -9 54 -16 117 -16 139 0 36 3 41 33 54 84 35 473 46 656 19 58 -8 107 -16 108 -17 1 -1 -5 -70 -12 -152 -20 -212 -19 -251 5 -275 11 -11 24 -20 28 -20 17 0 43 76 53 154 12 95 86 476 100 512 7 20 14 24 32 19 48 -15 50 -24 28 -132 -27 -133 -27 -143 4 -143 29 0 39 16 55 94 24 117 39 156 61 156 36 0 41 -42 19 -148 -17 -86 -18 -99 -5 -112 29 -28 48 1 76 109 27 107 40 127 72 109 18 -9 19 -18 14 -104 -4 -52 -11 -103 -16 -113 -12 -21 3 -41 30 -41 21 0 25 11 39 120 14 103 25 118 69 95 18 -9 35 -23 38 -32 4 -9 -1 -60 -10 -112 -14 -84 -15 -98 -2 -110 13 -13 16 -10 29 20 8 19 22 63 31 99 9 36 21 69 26 74 5 6 27 11 49 12 68 4 325 156 368 217 30 45 65 151 101 309 39 171 97 493 106 583 10 112 74 285 105 285 5 0 16 -11 25 -24z m-2070 -228 c8 -13 29 -66 46 -118 27 -85 30 -105 27 -197 -2 -66 -8 -107 -16 -115 -8 -8 -38 -13 -74 -13 l-62 0 -10 40 c-17 74 32 425 60 425 7 0 20 -10 29 -22z m-194 -123 c27 -128 31 -267 8 -290 -15 -16 -21 -15 -73 1 l-56 18 0 75 c1 116 15 204 44 267 23 50 28 56 41 43 8 -8 24 -59 36 -114z m483 67 c24 -74 36 -167 36 -284 l0 -108 -80 0 -80 0 0 45 c0 108 45 334 76 383 19 29 29 22 48 -36z m234 23 c19 -40 33 -151 35 -270 l2 -109 -48 -15 c-33 -10 -51 -11 -58 -4 -21 21 -32 151 -21 233 13 89 48 190 66 190 7 0 18 -11 24 -25z m-986 -22 c40 -44 47 -64 58 -179 15 -162 13 -299 -4 -313 -27 -22 -98 29 -115 83 -16 48 -32 265 -25 323 6 50 35 113 52 113 5 0 20 -12 34 -27z m1233 1 c37 -37 46 -65 55 -170 16 -185 -5 -258 -85 -298 -74 -37 -90 9 -76 224 7 116 12 145 36 198 29 64 42 73 70 46z m-1380 -289 c3 -66 9 -128 11 -137 4 -13 -5 -23 -30 -35 -55 -26 -60 -14 -64 141 -3 119 -1 138 17 174 43 84 54 60 66 -143z m1586 129 c18 -22 26 -244 9 -284 -30 -72 -50 -19 -50 132 0 161 8 191 41 152z m-1752 -166 c10 -124 6 -192 -15 -208 -22 -19 -33 21 -40 144 -6 97 -4 122 11 162 24 63 33 44 44 -98z m1919 -30 c6 -112 -3 -158 -28 -158 -19 0 -25 11 -35 70 -7 39 10 162 27 193 10 20 11 20 21 1 6 -10 13 -58 15 -106z m682 -5 c-16 -76 -84 -271 -122 -351 -47 -100 -175 -215 -268 -242 -80 -23 -42 62 51 117 90 52 150 127 227 281 38 76 79 165 93 199 13 34 25 60 27 58 2 -2 -2 -30 -8 -62z m-2743 -116 c5 -115 4 -127 -10 -121 -9 3 -21 22 -27 42 -13 49 -13 194 1 229 l11 28 10 -25 c5 -14 12 -82 15 -153z m2165 -44 c-8 -22 -10 -10 -10 62 l1 90 9 -62 c6 -41 6 -72 0 -90z m-2283 -22 c6 -63 9 -117 6 -119 -11 -11 -45 86 -45 128 0 45 20 134 26 115 2 -5 8 -61 13 -124z m2402 55 c12 -56 2 -133 -16 -129 -6 2 -11 46 -13 99 -3 105 9 118 29 30z m-1651 -129 c12 -34 24 -97 27 -140 5 -68 3 -83 -16 -117 -11 -21 -24 -65 -27 -99 -4 -34 -10 -61 -15 -61 -23 0 -82 401 -60 414 6 4 11 17 11 28 0 12 7 30 17 40 22 25 37 10 63 -65z m726 47 c7 -37 -2 -315 -13 -393 -4 -31 -8 -39 -14 -28 -20 35 -41 171 -46 296 -5 122 -4 135 12 148 33 24 54 16 61 -23z m183 23 c6 -8 18 -42 27 -78 21 -80 14 -242 -15 -372 -30 -130 -40 -139 -41 -34 0 93 -13 139 -49 171 -18 17 -21 30 -21 102 0 46 5 105 11 132 15 73 59 113 88 79z m-350 -13 c2 -2 -1 -59 -7 -126 -7 -68 -13 -154 -13 -193 -1 -76 -12 -131 -22 -105 -46 123 -76 411 -46 431 13 9 78 3 88 -7z m542 -7 c18 -12 39 -34 46 -47 16 -31 16 -144 0 -190 -10 -29 -17 -36 -44 -38 -58 -6 -73 11 -73 81 0 34 -5 91 -11 126 -5 35 -8 70 -5 78 8 20 49 16 87 -10z m-737 -107 c0 -176 -8 -350 -15 -350 -14 0 -75 269 -94 418 l-7 53 58 -3 59 -3 -1 -115z m-190 73 c14 -89 -2 -375 -22 -395 -6 -6 -12 4 -16 24 -5 26 -56 396 -56 406 0 1 20 2 44 2 42 0 44 -1 50 -37z m-359 -126 l0 -152 -24 0 c-62 0 -105 200 -56 255 11 13 34 29 50 36 17 7 30 13 30 14 0 0 0 -69 0 -153z m1469 100 c41 -54 48 -82 35 -150 -21 -105 -95 -150 -93 -57 2 96 16 240 24 240 5 0 20 -15 34 -33z m-1660 -51 c-5 -50 -2 -79 17 -141 22 -74 22 -78 5 -91 -27 -19 -43 -8 -70 49 -35 71 -50 146 -37 180 9 24 63 67 84 67 4 0 5 -29 1 -64z m1810 3 c22 -26 26 -40 26 -99 0 -83 -11 -117 -45 -132 -21 -9 -29 -9 -42 4 -14 15 -13 23 11 98 24 76 25 83 11 117 -18 43 -18 43 -1 43 8 0 26 -14 40 -31z m-1960 -166 c20 -59 22 -75 11 -89 -18 -25 -41 -12 -66 37 -17 34 -20 55 -17 109 2 40 10 75 18 85 14 17 16 15 23 -26 4 -24 18 -76 31 -116z m2125 121 c24 -30 26 -65 10 -129 -13 -53 -41 -85 -74 -85 -14 0 -25 1 -25 3 0 2 11 41 25 87 14 46 25 98 25 117 0 40 12 42 39 7z m-2243 -261 c-7 -18 -31 -6 -45 23 -15 33 -25 128 -17 151 5 12 16 -9 37 -72 16 -48 28 -94 25 -102z"
       id="path4" />
    <path
       d="M8371 6430 c-94 -45 -279 -110 -315 -110 -37 0 -56 -10 -56 -30 0 -51 55 -50 239 4 195 58 226 79 219 146 l-3 31 -84 -41z"
       id="path6" />
    <path
       d="M10780 6447 c0 -16 51 -97 71 -114 18 -14 142 -37 289 -53 58 -6 122 -16 144 -21 21 -6 41 -8 44 -4 3 3 -2 21 -12 40 -20 37 -57 55 -113 55 -61 0 -234 40 -326 76 -102 39 -97 38 -97 21z"
       id="path8" />
    <path
       d="M9216 6182 c-6 -11 21 -43 79 -93 l50 -42 5 -149 c5 -161 8 -168 63 -168 l27 0 0 186 0 185 -94 45 c-92 43 -120 51 -130 36z"
       id="path10" />
    <path
       d="M9999 6166 c-118 -42 -138 -55 -149 -95 -6 -20 -17 -107 -24 -195 -13 -175 -15 -170 50 -164 l39 3 6 140 c7 177 11 188 109 240 63 33 75 44 75 65 0 34 -23 35 -106 6z"
       id="path12" />
    <path
       d="M9946 5502 c-13 -39 42 -154 139 -292 73 -103 86 -114 119 -99 14 7 26 18 26 26 0 7 -30 46 -67 86 -38 41 -96 121 -131 180 -35 59 -67 109 -72 112 -5 3 -11 -3 -14 -13z"
       id="path14" />
    <path
       d="M9293 5405 c-57 -68 -202 -278 -203 -292 0 -23 74 -16 97 10 26 27 92 136 133 216 51 102 35 140 -27 66z"
       id="path16" />
    <path
       d="M9362 5377 c-6 -7 -21 -39 -33 -72 -40 -107 -275 -562 -342 -662 -71 -106 -174 -237 -342 -433 -117 -137 -139 -171 -130 -200 15 -48 48 -21 253 209 269 301 273 306 368 506 102 213 224 497 249 576 22 71 9 115 -23 76z"
       id="path18" />
    <path
       d="M9918 5375 c-3 -4 -3 -19 2 -33 6 -22 195 -494 281 -702 12 -30 38 -77 57 -105 50 -70 412 -529 426 -537 19 -13 54 -9 60 8 16 41 31 18 -259 369 -86 105 -161 201 -166 214 -6 14 -61 131 -123 260 -63 130 -141 292 -173 361 -60 125 -93 177 -105 165z"
       id="path20" />
    <path
       d="M10733 4753 c-35 -7 -28 -31 30 -124 96 -152 101 -159 123 -159 30 0 86 20 104 37 13 13 13 16 0 26 -9 7 -51 56 -93 110 -68 85 -109 121 -135 116 -4 -1 -17 -4 -29 -6z"
       id="path22" />
    <path
       d="M8359 4593 c-54 -53 -99 -101 -99 -107 0 -6 15 -29 34 -51 32 -38 35 -39 60 -25 42 22 181 172 194 208 10 28 9 35 -8 52 -41 41 -73 28 -181 -77z"
       id="path24" />
    <path
       d="M7390 3776 c0 -8 57 -90 126 -183 70 -92 133 -185 140 -208 16 -47 97 -519 119 -690 19 -149 42 -410 51 -575 3 -69 11 -131 16 -137 6 -7 21 -13 33 -13 40 0 44 16 34 150 -19 273 -54 561 -113 936 l-62 392 -79 88 c-123 135 -242 254 -254 254 -6 0 -11 -7 -11 -14z"
       id="path26" />
    <path
       d="M7750 3780 c0 -6 7 -65 15 -133 8 -67 24 -205 35 -307 12 -102 35 -284 51 -405 17 -121 52 -395 79 -609 26 -213 53 -393 59 -399 12 -12 101 -11 114 2 4 4 -3 66 -17 137 -13 71 -45 260 -71 419 -145 907 -214 1282 -236 1296 -19 12 -29 11 -29 -1z"
       id="path28" />
    <path
       d="M11720 3635 c-60 -58 -114 -105 -120 -105 -40 0 -95 -313 -160 -908 -36 -329 -68 -567 -86 -639 -8 -30 14 -30 50 -2 48 38 53 60 101 478 51 444 120 883 150 948 13 28 49 87 80 129 105 141 137 204 104 204 -6 0 -60 -47 -119 -105z"
       id="path30" />
    <path
       d="M11466 3683 c-3 -10 -13 -81 -21 -158 -24 -219 -93 -734 -121 -900 -28 -166 -94 -654 -94 -697 0 -62 81 -18 100 53 5 19 21 131 34 249 14 118 45 384 70 590 56 475 78 697 80 796 1 74 0 79 -21 82 -14 2 -23 -3 -27 -15z"
       id="path32" />
    <path
       d="M11111 2641 c-11 -11 -28 -35 -37 -53 -48 -93 -196 -291 -324 -434 -103 -114 -125 -164 -74 -164 19 0 60 35 172 144 157 154 202 216 283 391 45 97 47 110 19 125 -15 8 -24 6 -39 -9z"
       id="path34" />
    <path
       d="M8064 2605 c-7 -17 99 -203 161 -285 201 -261 355 -364 355 -238 0 14 -52 71 -151 167 -84 80 -192 197 -241 258 -87 109 -112 129 -124 98z"
       id="path36" />
    <path
       d="M9686 2533 c-4 -9 -3 -99 0 -201 l7 -184 45 -67 c25 -36 70 -99 99 -139 l54 -73 127 3 c110 3 127 5 130 20 4 20 -10 24 -113 33 l-70 7 -65 67 c-101 104 -126 147 -134 233 -10 114 -36 280 -47 300 -12 22 -25 23 -33 1z"
       id="path38" />
    <path
       d="M9546 2522 c-3 -9 -10 -73 -16 -142 -12 -150 -28 -201 -85 -279 -74 -101 -116 -124 -250 -141 -98 -12 -115 -17 -115 -35 0 -18 18 -23 107 -30 43 -3 99 -8 124 -11 l47 -4 116 124 116 125 0 190 c0 104 -3 196 -6 205 -8 21 -31 20 -38 -2z"
       id="path40" />
    <path
       d="M11212 2375 c-12 -15 -31 -73 -46 -138 -49 -212 -57 -237 -87 -266 -58 -59 -413 -194 -774 -295 -52 -14 -51 -30 2 -34 129 -9 829 212 871 276 18 28 76 462 63 475 -5 5 -18 -3 -29 -18z"
       id="path42" />
    <path
       d="M8094 2286 c-8 -20 42 -396 53 -407 12 -12 290 -112 423 -152 137 -42 282 -72 405 -87 131 -14 175 -13 175 5 0 21 -31 32 -215 71 -88 19 -213 50 -279 70 -126 37 -405 139 -417 151 -3 5 -23 64 -43 133 -46 157 -65 207 -82 221 -11 9 -15 7 -20 -5z"
       id="path44" />
    <path
       d="M8880 2239 c-43 -26 -130 -109 -130 -125 0 -6 14 -30 30 -53 l31 -42 75 52 c121 84 139 119 81 163 -41 31 -43 31 -87 5z"
       id="path46" />
    <path
       d="M10293 2234 c-26 -15 -43 -33 -43 -43 0 -23 79 -132 111 -155 13 -9 33 -16 45 -16 30 0 74 37 74 63 0 19 -118 167 -138 174 -4 2 -26 -9 -49 -23z"
       id="path48" />
    <path
       d="M11135 1269 c-533 -5 -1806 -12 -2829 -16 l-1858 -8 -20 -25 c-18 -23 -19 -38 -16 -321 2 -164 7 -301 11 -306 5 -4 293 -11 640 -16 802 -9 5863 -5 5873 6 5 4 8 162 9 350 l0 342 -420 1 c-231 0 -856 -3 -1390 -7z m1765 -16 l33 -6 -5 -319 c-3 -176 -9 -322 -13 -326 -19 -20 -6452 -9 -6472 11 -4 5 -9 135 -11 290 -2 232 0 285 11 301 14 19 49 20 1853 28 1012 5 2262 12 2779 17 1300 11 1787 12 1825 4z"
       id="path50" />
    <path
       d="M6984 1156 c-18 -8 -62 -51 -99 -95 -37 -45 -72 -81 -77 -81 -11 0 -76 64 -141 139 l-38 44 -61 -6 c-87 -8 -114 -44 -52 -67 37 -14 44 -48 44 -204 l0 -142 -32 -9 c-38 -12 -50 -48 -21 -63 27 -14 163 -23 198 -14 38 11 45 44 13 66 -12 9 -30 16 -39 16 -9 0 -20 7 -23 16 -7 17 -8 194 -2 194 2 0 35 -32 72 -70 37 -39 71 -69 74 -68 4 2 35 36 69 76 34 39 66 72 71 72 11 0 14 -140 4 -188 -5 -22 -14 -32 -36 -38 -43 -13 -58 -38 -35 -61 15 -15 35 -18 116 -18 106 0 131 10 131 51 0 17 -7 25 -24 30 -14 3 -27 13 -30 21 -3 8 -9 86 -13 173 l-6 159 27 11 c35 13 45 39 21 56 -24 18 -71 17 -111 0z"
       id="path52" />
    <path
       d="M7180 1163 c-14 -3 -29 -9 -34 -14 -13 -12 22 -49 45 -49 35 0 44 -38 44 -180 -1 -168 -5 -187 -50 -206 -19 -8 -35 -21 -35 -29 0 -20 41 -25 219 -28 l155 -2 48 90 c46 88 58 125 38 125 -5 0 -42 -29 -82 -65 -64 -58 -76 -65 -114 -65 -51 0 -63 13 -71 79 -5 48 -4 51 21 61 15 5 51 11 79 11 75 2 111 12 115 31 5 27 -53 56 -125 64 -46 5 -66 11 -73 25 -16 28 -12 57 9 69 38 20 53 15 174 -55 42 -24 51 -26 63 -13 13 12 10 23 -20 79 l-34 64 -53 7 c-61 7 -281 8 -319 1z"
       id="path54" />
    <path
       d="M7646 1154 c-17 -16 -15 -21 16 -64 13 -19 20 -60 29 -163 14 -172 11 -183 -41 -192 -43 -7 -64 -32 -54 -60 6 -15 23 -16 140 -13 107 2 137 6 150 20 21 21 12 35 -29 43 -17 4 -35 13 -39 19 -11 16 -10 206 1 206 5 0 32 -25 59 -55 28 -30 57 -55 64 -55 8 0 49 36 92 80 43 44 80 80 82 80 2 0 4 -58 4 -130 l0 -130 -33 0 c-41 0 -70 -20 -65 -46 5 -30 70 -39 185 -25 54 6 105 11 113 10 8 0 99 -3 201 -5 l186 -5 49 78 c26 42 48 86 48 97 1 38 -36 29 -98 -23 -94 -80 -196 -83 -196 -7 0 19 6 38 13 43 6 4 45 10 86 13 47 3 76 10 79 18 7 21 -63 82 -94 82 -58 0 -74 10 -74 44 0 46 12 58 64 63 38 5 51 1 78 -19 111 -84 140 -70 84 38 l-39 76 -166 -4 c-106 -2 -174 -8 -188 -16 -14 -8 -24 -9 -28 -2 -3 5 -36 10 -73 10 -80 0 -96 -8 -206 -108 -43 -40 -81 -72 -86 -72 -11 0 -92 89 -128 143 l-33 47 -69 0 c-49 0 -73 -4 -84 -16z m720 -63 l29 -8 -2 -147 c0 -81 -4 -157 -7 -169 -3 -12 -19 -30 -36 -39 -30 -17 -33 -17 -56 0 -13 9 -26 26 -28 37 -10 45 -15 175 -9 243 5 64 9 75 29 82 12 5 25 14 29 20 6 9 9 9 15 1 4 -7 20 -15 36 -20z"
       id="path56" />
    <path
       d="M10718 1163 c-28 -7 -21 -37 16 -71 32 -29 35 -36 41 -116 4 -47 5 -117 3 -157 -4 -78 -19 -99 -69 -99 -15 0 -35 -7 -44 -16 -15 -16 -15 -18 0 -33 24 -25 287 -24 312 1 22 23 9 38 -55 58 -43 14 -47 18 -55 57 -4 23 -4 75 0 115 l9 73 17 -32 c10 -18 31 -49 48 -68 25 -28 38 -35 68 -35 36 0 39 3 92 85 29 47 57 85 61 85 5 0 8 -55 8 -121 0 -105 -3 -126 -21 -159 -31 -55 -22 -66 58 -73 136 -13 193 -5 193 27 0 18 -30 42 -61 50 -34 8 -38 24 -46 183 -6 132 -6 132 21 167 14 19 26 39 26 45 0 18 -79 33 -132 24 l-51 -8 -57 -95 c-32 -52 -64 -96 -73 -98 -10 -2 -37 28 -76 87 -34 50 -61 95 -61 101 0 24 -112 39 -172 23z"
       id="path58" />
    <path
       d="M12530 1163 c-69 -7 -83 -13 -70 -28 6 -7 25 -17 41 -20 l29 -7 0 -183 0 -182 -40 -7 c-34 -5 -40 -10 -40 -31 0 -33 28 -40 170 -40 l115 0 0 25 c0 20 -7 27 -32 35 -39 11 -40 13 -47 213 l-6 142 46 12 c50 14 65 32 43 53 -15 13 -147 25 -209 18z"
       id="path60" />
    <path
       d="M8820 1151 c-37 -10 -38 -46 -2 -65 26 -13 31 -23 37 -71 6 -53 0 -175 -11 -238 -4 -17 -17 -33 -35 -42 -31 -17 -39 -49 -13 -59 20 -8 198 -8 218 0 28 11 17 35 -23 51 -46 18 -51 30 -51 138 0 95 8 114 39 93 42 -29 211 -181 211 -190 0 -4 1 -11 2 -15 1 -5 -11 -10 -28 -13 -21 -4 -30 -12 -32 -29 -2 -13 2 -28 10 -32 7 -5 69 -9 139 -9 129 0 149 6 149 41 0 23 -16 32 -65 39 l-40 5 -12 80 c-6 44 -12 115 -12 157 -1 75 0 78 24 84 28 7 49 38 41 60 -8 21 -224 20 -232 -1 -8 -19 12 -44 43 -56 13 -5 28 -20 33 -34 11 -29 14 -115 3 -115 -23 0 -201 163 -213 196 -12 29 -114 43 -180 25z"
       id="path62" />
    <path
       d="M9394 1109 c-58 -102 -51 -119 28 -68 38 25 63 33 97 33 l46 1 3 -115 c2 -63 0 -139 -3 -167 -6 -47 -9 -53 -30 -53 -12 0 -33 -9 -46 -20 -24 -20 -24 -20 -5 -35 28 -21 268 -22 286 0 18 21 8 37 -31 50 -34 12 -34 12 -40 86 -4 41 -7 113 -8 162 l-1 87 51 0 c28 0 76 -7 106 -16 51 -15 57 -15 71 0 15 15 15 18 0 44 -27 46 -50 51 -279 58 l-214 6 -31 -53z"
       id="path64" />
    <path
       d="M11570 1151 c-49 -10 -71 -24 -113 -70 -57 -63 -72 -156 -42 -258 12 -40 28 -63 71 -102 68 -63 112 -77 178 -57 57 17 123 66 162 121 26 36 29 48 29 120 0 57 -5 89 -18 112 -22 41 -78 98 -115 117 -35 18 -108 26 -152 17z m100 -91 c30 -30 40 -63 40 -134 0 -110 -38 -180 -94 -174 -59 6 -87 88 -71 213 12 96 76 144 125 95z"
       id="path66" />
    <path
       d="M11953 1153 c-60 -5 -82 -23 -58 -47 9 -9 28 -16 42 -16 l26 0 -5 -167 -5 -166 -33 -27 c-38 -31 -36 -54 7 -71 34 -13 220 -6 235 9 6 6 8 22 4 36 -5 21 -13 26 -36 26 -27 0 -29 3 -36 46 -3 25 -3 59 2 76 l9 30 69 -96 c86 -119 100 -133 121 -116 27 23 19 91 -21 169 l-37 70 32 37 c32 36 51 73 51 99 0 26 -61 85 -98 94 -45 12 -199 20 -269 14z m221 -106 c9 -15 7 -22 -13 -38 -13 -10 -34 -19 -47 -19 -21 0 -24 4 -24 41 l0 40 36 -3 c22 -2 41 -10 48 -21z"
       id="path68" />
    <path
       d="M10038 1121 c-69 -44 -118 -113 -118 -168 0 -110 53 -203 141 -247 60 -29 133 -35 177 -12 46 24 130 120 137 157 12 66 -26 183 -78 237 -42 44 -87 62 -156 62 -46 0 -66 -6 -103 -29z m150 -76 c38 -42 48 -102 33 -187 -14 -79 -36 -103 -85 -94 -53 10 -66 37 -73 152 -6 97 -5 100 22 132 35 42 65 41 103 -3z"
       id="path70" />
  </g>
</svg>
