<?xml version="1.0" standalone="no"?>
<!DOCTYPE svg PUBLIC "-//W3C//DTD SVG 20010904//EN"
 "http://www.w3.org/TR/2001/REC-SVG-20010904/DTD/svg10.dtd">
<svg version="1.0" xmlns="http://www.w3.org/2000/svg"
 width="1113.000000pt" height="1200.000000pt" viewBox="0 0 1113.000000 1200.000000"
 preserveAspectRatio="xMidYMid meet">
<metadata>
Created by potrace 1.16, written by Peter Selinger 2001-2019
</metadata>
<g transform="translate(0.000000,1200.000000) scale(0.100000,-0.100000)"
fill="{color1}" stroke="none">
<path d="M8616 11563 c-2 -3 -1297 -10 -3189 -18 -1224 -5 -3032 -23 -3447
-34 -151 -4 -516 -8 -810 -9 -294 -1 -590 -5 -657 -9 -177 -9 -165 18 -163
-334 1 -156 3 -781 5 -1389 1 -608 6 -1397 9 -1755 10 -1004 15 -1544 21
-2375 3 -421 7 -1026 10 -1345 10 -1110 16 -2016 19 -2915 3 -621 8 -914 15
-933 6 -16 11 -33 11 -38 0 -5 65 -9 153 -9 83 0 1243 -2 2577 -4 1334 -3
2702 -5 3040 -4 338 0 1476 0 2528 0 l1912 -1 28 24 27 23 0 1879 c0 1033 -3
2272 -7 2753 -4 481 -10 1219 -13 1640 -11 1661 -18 2487 -20 2530 -2 25 -6
549 -9 1165 -7 1100 -7 1120 -27 1140 -19 20 -33 20 -1015 20 -548 0 -997 -1
-998 -2z m1907 -76 c-3 -5 4 -4 16 2 12 7 26 9 32 6 6 -4 10 -98 9 -258 0
-309 7 -989 14 -1352 3 -148 8 -675 11 -1170 3 -495 7 -1159 10 -1475 3 -316
7 -1036 10 -1600 3 -564 8 -1430 12 -1925 4 -495 7 -927 7 -960 -1 -33 -5
-431 -10 -885 -4 -454 -8 -954 -8 -1112 l0 -287 -151 -3 c-82 -2 -1655 -2
-3495 -1 -3620 3 -5116 2 -5390 -2 -161 -3 -735 -5 -960 -3 -52 0 -102 -1
-112 -3 -15 -4 -17 25 -22 321 -3 179 -8 723 -11 1210 -4 487 -8 964 -10 1060
-2 96 -6 445 -9 775 -3 330 -8 767 -11 970 -3 204 -7 800 -10 1325 -7 1474
-14 2411 -20 2800 -9 562 -11 2488 -3 2496 4 4 121 8 260 10 1154 12 1441 16
1493 19 64 4 861 12 2140 20 435 3 1011 8 1280 12 270 4 564 6 655 6 988 -5
3608 2 3616 10 7 7 661 1 657 -6z"/>
<path d="M9929 10886 c-2 -2 -132 -7 -289 -10 -157 -4 -366 -9 -465 -12 -214
-6 -1797 -13 -4155 -18 -1590 -4 -2270 -9 -2840 -21 -124 -3 -373 -7 -555 -10
-410 -8 -566 -13 -572 -19 -3 -2 -4 -359 -2 -793 1 -433 3 -979 3 -1213 3
-1420 6 -1751 19 -1744 8 6 8 3 -1 -9 -14 -16 -12 -308 3 -792 9 -274 15
-1220 21 -3065 3 -1004 9 -1886 12 -1960 l7 -135 120 -5 c66 -3 266 -2 445 3
325 7 1285 3 2630 -11 636 -6 2940 -5 3225 3 61 1 642 6 1292 10 l1181 8 7 91
c12 156 1 4381 -11 4397 -7 10 -8 109 -2 319 7 284 4 1724 -5 2405 -2 165 -6
812 -8 1437 -3 753 -7 1137 -14 1134 -5 -2 -17 0 -26 5 -9 5 -18 7 -20 5z
m-4593 -369 c-14 -29 -40 -107 -57 -173 -25 -95 -31 -142 -32 -234 -2 -134 9
-230 27 -230 9 0 12 38 12 148 0 81 5 174 12 207 43 207 71 283 117 325 l28
25 -7 -40 c-34 -209 -38 -253 -38 -455 0 -147 3 -224 12 -245 11 -27 13 -28
19 -10 4 11 8 91 9 177 2 214 33 518 53 518 22 0 57 -255 64 -477 7 -212 10
-233 29 -233 23 0 27 48 22 247 -4 166 -35 468 -51 493 -12 20 13 18 32 -3 63
-70 120 -324 132 -582 6 -136 8 -147 20 -120 10 22 14 91 14 250 l1 220 -32
82 c-17 45 -40 100 -52 122 -23 46 -24 51 -10 51 21 0 93 -77 130 -139 78
-134 101 -378 54 -593 -5 -23 -3 -28 14 -28 32 0 77 176 76 300 0 173 -52 330
-133 403 -23 20 -41 39 -41 42 0 2 17 -2 39 -10 85 -30 161 -95 200 -173 54
-109 70 -327 33 -472 -30 -116 -11 -111 36 10 42 105 66 229 57 299 -16 133
-47 210 -109 272 -37 38 -39 41 -15 35 113 -25 182 -109 224 -271 27 -107 14
-235 -36 -359 -16 -38 -28 -71 -26 -72 6 -6 84 110 115 171 42 84 80 203 93
291 10 63 9 81 -6 126 -9 29 -25 65 -36 79 -24 35 -24 37 5 32 36 -7 103 -68
128 -117 18 -33 22 -58 23 -131 0 -172 -65 -314 -291 -628 -66 -92 -84 -120
-84 -131 0 -18 72 59 146 155 144 190 219 325 265 478 36 120 15 257 -48 324
-35 36 -11 36 44 -1 86 -57 124 -133 131 -257 6 -118 -14 -192 -85 -320 -61
-112 -105 -172 -183 -258 -82 -90 -48 -82 39 8 83 88 181 225 229 321 72 142
77 322 13 425 -16 27 -26 49 -21 49 41 0 118 -66 150 -130 38 -75 49 -132 40
-207 -22 -172 -95 -297 -255 -435 -74 -63 -101 -98 -79 -98 11 0 194 149 258
210 91 86 164 210 205 347 25 84 26 124 5 187 -9 26 -14 50 -11 53 4 3 23 -3
44 -14 57 -29 86 -94 87 -192 0 -168 -53 -282 -202 -435 -61 -63 -258 -233
-359 -310 -57 -43 -76 -66 -55 -66 28 0 364 262 459 358 103 104 198 237 219
310 8 26 17 85 21 132 5 69 2 92 -11 118 -16 31 -16 32 2 32 11 0 37 -13 60
-30 32 -23 44 -41 57 -82 8 -28 15 -66 15 -83 0 -51 -37 -182 -72 -252 -43
-89 -157 -228 -250 -308 -43 -37 -78 -71 -78 -76 0 -34 109 41 220 152 82 82
178 221 211 307 30 78 37 188 15 243 l-17 42 32 -7 c69 -14 99 -70 99 -188 0
-138 -33 -226 -135 -358 -54 -71 -231 -240 -290 -277 -61 -39 -65 -53 -12 -40
92 22 254 157 360 299 108 145 150 272 135 413 -4 38 -5 72 -2 74 2 2 24 -16
48 -41 48 -51 56 -77 56 -203 0 -132 -38 -237 -129 -357 -88 -115 -298 -276
-517 -394 -72 -40 -104 -68 -90 -81 8 -8 141 54 245 114 214 124 379 257 452
365 71 104 101 189 106 303 3 56 1 117 -5 138 -8 29 -8 37 3 37 29 0 64 -54
84 -127 33 -123 21 -265 -34 -388 -44 -98 -155 -226 -285 -327 -51 -40 -29
-45 32 -8 177 109 313 261 354 395 20 66 19 214 -2 305 -9 39 -13 74 -10 77 9
9 75 -65 90 -101 22 -52 46 -170 46 -223 0 -164 -125 -355 -310 -477 -93 -62
-316 -169 -450 -216 -320 -114 -584 -231 -682 -304 -24 -16 -38 -46 -24 -46 2
0 51 22 108 49 174 82 192 89 485 187 307 102 366 126 507 205 201 115 323
228 394 369 55 110 69 187 53 293 -7 43 -21 98 -31 123 -22 50 -19 53 25 22
49 -33 115 -138 124 -195 21 -148 -54 -336 -185 -464 -94 -93 -192 -154 -358
-224 -92 -38 -130 -65 -92 -65 25 0 201 58 273 91 114 51 250 165 358 299 73
91 111 216 95 315 -4 28 -6 52 -3 55 9 9 53 -57 74 -110 65 -171 -42 -385
-241 -482 -41 -20 -88 -42 -105 -48 l-30 -12 25 -10 c38 -14 157 30 259 98 20
12 59 26 87 30 59 7 83 -3 214 -91 137 -93 185 -138 245 -236 l55 -90 19 -212
c14 -164 22 -219 36 -240 9 -15 21 -27 25 -27 5 0 11 30 15 68 4 37 8 72 9 77
2 6 17 -18 35 -52 24 -49 33 -84 41 -160 9 -88 18 -112 42 -113 12 0 20 63 14
123 -7 70 9 76 61 20 40 -44 55 -76 72 -153 7 -30 19 -74 28 -98 13 -36 17
-41 30 -31 11 10 14 32 12 93 -2 53 0 81 8 83 6 2 39 -10 72 -27 54 -27 64
-37 85 -83 13 -28 27 -65 30 -82 4 -16 14 -41 23 -54 l16 -24 12 29 c9 24 8
40 -7 92 -11 35 -17 66 -14 69 2 3 29 -2 60 -11 44 -13 63 -26 99 -67 68 -78
137 -275 124 -355 -6 -36 -60 -150 -81 -172 -11 -11 -16 -2 -30 48 -16 55 -37
82 -53 67 -3 -3 0 -57 6 -120 11 -101 10 -119 -5 -155 -9 -23 -20 -42 -25 -42
-5 0 -9 2 -9 5 0 18 -64 253 -72 262 -19 23 -29 2 -23 -45 4 -26 18 -110 32
-187 21 -118 23 -145 13 -178 -6 -22 -15 -36 -20 -31 -9 10 -44 164 -59 259
-10 59 -30 115 -42 115 -23 0 -16 -122 17 -315 8 -49 17 -101 19 -115 4 -25
-24 -110 -37 -110 -10 0 -47 105 -76 218 -14 56 -30 101 -36 99 -31 -10 -23
-79 42 -362 18 -77 15 -105 -11 -131 -9 -9 -42 63 -61 131 -33 117 -48 137
-59 78 -6 -31 14 -153 39 -242 17 -62 16 -102 -2 -108 -12 -4 -75 135 -94 208
-12 43 -33 48 -38 10 -4 -28 35 -190 60 -249 18 -45 24 -92 10 -92 -12 0 -74
106 -107 183 -36 85 -61 102 -52 36 9 -62 51 -163 93 -225 34 -49 38 -74 11
-74 -18 1 -135 166 -166 232 -29 64 -56 79 -48 26 9 -63 58 -174 107 -245 28
-40 50 -77 50 -83 0 -24 -24 -5 -77 61 -95 118 -101 124 -108 117 -10 -10 45
-124 95 -198 23 -34 39 -65 35 -68 -8 -8 -55 44 -132 146 -31 39 -59 72 -64
72 -32 0 39 -142 113 -224 69 -78 52 -92 -34 -26 -37 27 -69 54 -73 60 -9 14
-25 3 -25 -17 0 -28 49 -81 110 -119 56 -34 74 -54 50 -54 -21 0 -107 50 -180
104 -77 57 -100 67 -100 42 0 -24 146 -137 238 -185 12 -6 22 -16 22 -22 0
-10 -29 -5 -98 17 -53 17 -62 17 -62 1 0 -16 58 -49 115 -67 50 -16 69 -30 56
-43 -12 -12 -107 8 -139 29 -31 20 -40 10 -16 -17 24 -26 82 -57 146 -75 31
-10 48 -20 48 -31 0 -11 -8 -14 -30 -11 -29 4 -38 -6 -22 -27 7 -11 69 -39
111 -51 13 -3 47 -20 75 -38 63 -38 70 -65 25 -96 -42 -30 -168 -31 -226 -2
-61 31 -142 100 -230 194 -136 145 -213 262 -246 373 -39 131 -49 172 -91 377
-108 519 -147 704 -185 858 -22 91 -58 262 -81 380 -98 506 -121 603 -178 766
l-57 162 -45 15 c-109 39 -164 47 -228 36 -33 -6 -69 -17 -79 -24 -16 -12 -14
-14 22 -20 63 -10 167 -45 203 -67 27 -17 53 -61 41 -72 -2 -2 -53 5 -114 17
-198 36 -488 25 -715 -29 -95 -23 -319 -118 -307 -130 2 -3 22 0 43 5 22 5 68
17 104 26 123 31 285 55 415 61 287 14 581 -50 634 -137 26 -43 19 -51 -26
-28 -50 24 -169 54 -323 79 -199 32 -480 25 -480 -12 0 -4 17 -8 38 -8 81 -1
382 -56 509 -94 76 -23 142 -50 242 -99 49 -24 111 -91 111 -119 0 -23 0 -23
-80 12 -38 17 -127 45 -197 62 -118 30 -140 32 -283 31 -164 0 -330 -21 -392
-47 -65 -28 -47 -38 50 -29 152 14 317 8 442 -16 170 -33 287 -83 422 -183 56
-41 69 -56 82 -96 22 -68 35 -122 30 -122 -2 0 -26 16 -53 35 -65 47 -220 119
-301 141 -68 18 -193 25 -206 11 -12 -12 12 -23 85 -42 195 -49 532 -328 567
-471 l7 -29 -42 38 c-93 84 -292 193 -406 222 -74 19 -168 20 -163 3 3 -7 36
-25 74 -39 38 -14 105 -47 149 -74 95 -57 270 -198 319 -258 39 -48 108 -166
104 -178 -2 -4 -39 22 -83 58 -93 75 -189 134 -295 179 -71 30 -160 50 -160
35 0 -3 28 -22 63 -41 208 -114 410 -289 502 -435 27 -43 65 -149 65 -182 0
-6 -37 26 -83 71 -171 169 -480 331 -567 298 -23 -8 -17 -13 75 -57 174 -83
336 -209 461 -360 94 -112 175 -226 171 -238 -2 -6 -11 0 -22 16 -24 38 -163
152 -254 210 -213 135 -460 205 -676 194 -147 -8 -306 -50 -319 -84 -4 -9 -5
-17 -3 -19 1 -2 34 4 72 13 52 13 115 17 245 16 210 -1 272 -14 442 -96 266
-128 487 -341 569 -549 24 -62 19 -72 -12 -21 -94 153 -280 341 -419 423 -131
78 -365 180 -410 180 -5 0 -2 -14 8 -31 12 -21 34 -38 72 -53 247 -100 454
-260 589 -454 57 -83 157 -278 166 -327 4 -22 -2 -15 -25 28 -17 31 -32 57
-34 57 -2 0 5 -27 15 -61 36 -116 17 -101 -33 25 -53 135 -162 323 -239 410
-116 131 -469 339 -545 320 -35 -9 -26 -22 31 -47 130 -55 384 -230 439 -302
14 -18 32 -39 39 -47 14 -14 116 -197 165 -293 37 -75 114 -284 109 -298 -1
-5 -15 18 -30 51 -32 76 -51 82 -27 10 23 -70 35 -136 22 -123 -5 6 -35 77
-66 159 -66 175 -187 415 -251 501 -86 114 -126 146 -416 330 -72 45 -81 61
-46 74 30 12 40 36 25 61 -26 41 -57 44 -281 31 -115 -6 -212 -9 -215 -6 -3 2
9 27 26 55 45 73 57 122 37 160 -14 26 -21 30 -58 30 l-42 0 -39 -93 c-22 -50
-59 -133 -82 -182 -43 -90 -65 -174 -114 -445 -11 -58 -22 -116 -25 -130 -3
-14 -10 -54 -15 -90 -5 -36 -14 -88 -19 -115 -5 -28 -11 -93 -12 -145 -2 -88
-1 -94 20 -102 12 -4 37 -19 55 -33 40 -30 53 -31 61 -5 8 26 55 27 84 3 20
-18 20 -18 -49 -98 -38 -44 -69 -84 -69 -90 -1 -5 9 -23 22 -38 21 -26 25 -28
50 -16 14 6 29 20 32 30 7 22 122 129 138 129 21 -1 57 -37 56 -57 -1 -10 -34
-47 -74 -83 -74 -66 -86 -90 -65 -131 21 -38 71 -25 165 42 67 48 88 59 99 50
19 -16 57 -107 51 -123 -3 -7 -47 -35 -98 -61 -76 -39 -97 -54 -110 -83 -21
-43 -22 -41 7 -59 23 -15 29 -14 125 36 56 28 103 50 104 48 5 -8 27 -100 27
-114 0 -9 -41 -35 -100 -65 l-100 -50 0 -40 c0 -37 2 -40 28 -40 15 0 32 4 38
9 9 9 154 71 165 71 6 0 16 -28 25 -75 2 -11 6 -32 9 -46 7 -33 2 -37 -117
-83 -54 -21 -101 -42 -104 -47 -3 -5 -3 -22 1 -37 6 -28 6 -28 63 -21 31 4 82
15 112 23 67 19 72 19 68 4 -1 -7 3 -29 10 -48 6 -19 13 -55 14 -80 l3 -45
-107 -15 c-118 -16 -136 -26 -119 -59 10 -18 22 -21 84 -23 40 0 77 -2 82 -3
6 -2 26 -3 46 -4 l36 -1 16 -78 c9 -42 17 -81 17 -86 0 -8 -129 -1 -197 11
-28 4 -33 2 -33 -15 0 -28 15 -36 104 -55 44 -9 84 -21 88 -25 9 -9 -27 -138
-43 -158 -11 -13 -67 -4 -125 21 -32 13 -34 13 -34 -5 0 -12 22 -35 61 -62
l61 -43 -6 -64 c-3 -35 -8 -66 -11 -69 -3 -4 -40 11 -81 31 -41 21 -79 35 -85
32 -24 -15 -7 -51 39 -83 98 -67 105 -77 97 -132 -4 -28 -11 -50 -15 -50 -5 0
-39 14 -75 32 -51 24 -69 28 -78 19 -17 -17 -1 -38 74 -94 35 -27 67 -54 71
-60 11 -17 10 -101 -2 -131 -8 -23 -12 -24 -40 -14 -17 6 -35 20 -40 32 -4 11
-20 47 -35 80 -15 32 -43 100 -62 150 -33 88 -77 190 -130 306 -35 76 -192
362 -238 435 -56 88 -168 245 -204 285 -17 19 -31 39 -31 43 0 5 -4 6 -9 3 -9
-6 39 -102 83 -169 10 -15 16 -30 13 -34 -4 -3 -55 6 -114 20 -81 19 -111 23
-121 14 -21 -17 6 -32 122 -68 144 -44 171 -61 206 -133 33 -64 38 -91 16 -83
-45 17 -159 48 -163 43 -13 -12 33 -53 99 -88 140 -75 181 -119 228 -244 10
-25 9 -26 -17 -21 -16 3 -48 12 -72 22 -25 9 -48 12 -53 7 -14 -14 2 -39 34
-53 17 -7 63 -34 102 -59 61 -40 76 -55 104 -110 39 -76 33 -88 -34 -71 -88
22 -72 -11 36 -72 72 -40 77 -45 116 -122 40 -80 62 -141 47 -133 -4 2 -25 12
-45 21 -20 9 -39 21 -42 26 -6 9 -46 4 -46 -6 0 -20 33 -51 109 -103 76 -52
92 -68 110 -110 24 -56 27 -80 9 -80 -7 0 -42 16 -77 35 -36 19 -67 32 -70 30
-3 -3 33 -40 79 -83 83 -77 184 -201 221 -274 23 -45 18 -47 -30 -10 -47 37
-131 86 -137 80 -2 -3 25 -40 62 -84 70 -84 114 -159 114 -195 0 -33 -22 -89
-35 -89 -6 0 -44 38 -84 85 -65 76 -110 109 -128 92 -3 -3 9 -24 26 -46 43
-54 99 -169 109 -222 7 -35 5 -50 -9 -73 l-17 -28 -56 76 c-31 42 -84 98 -117
126 -95 79 -104 66 -29 -44 28 -41 66 -108 85 -149 43 -92 46 -144 11 -184
l-24 -28 -11 27 c-28 73 -148 229 -241 314 -60 54 -190 154 -201 154 -24 0 -4
-32 41 -66 94 -72 215 -245 280 -400 47 -113 49 -139 15 -175 -16 -16 -34 -29
-39 -29 -6 0 -38 53 -71 117 -59 116 -93 164 -174 252 -54 59 -67 34 -18 -36
52 -73 82 -130 120 -223 56 -139 57 -173 6 -200 -15 -8 -26 6 -76 97 -57 105
-152 223 -179 223 -20 0 -19 -3 27 -76 57 -90 100 -197 106 -263 5 -50 2 -58
-20 -79 l-25 -24 -12 39 c-36 109 -155 293 -190 293 -19 0 -14 -19 29 -103 92
-182 116 -317 56 -317 -6 0 -40 55 -75 122 -62 117 -115 188 -139 188 -18 0
-13 -17 23 -93 47 -98 98 -257 91 -284 -3 -12 -14 -27 -25 -33 -17 -9 -24 0
-74 105 -65 136 -91 175 -117 175 -10 0 -19 -2 -19 -5 0 -3 13 -50 29 -103 34
-114 48 -207 33 -216 -6 -3 -22 -2 -37 4 -21 8 -38 35 -83 130 -45 95 -60 120
-75 118 -23 -4 -23 -2 -2 -113 21 -115 18 -127 -32 -123 -36 3 -40 6 -78 80
-33 64 -44 78 -63 78 -23 0 -24 -2 -17 -57 12 -106 14 -98 -30 -98 -38 0 -41
2 -52 40 -6 22 -14 53 -18 68 -5 25 -9 28 -36 23 -17 -2 -34 -7 -37 -11 -4 -3
-7 -32 -7 -63 l0 -57 -45 -6 c-73 -10 -80 -5 -80 60 0 49 4 62 30 91 24 27 31
30 36 17 8 -21 29 -21 161 -2 90 14 115 22 195 65 50 28 93 50 95 50 3 0 19
10 36 22 27 20 28 22 11 28 -10 4 -50 8 -88 9 -84 3 -164 17 -183 33 -23 19
-50 79 -63 141 -10 50 -9 61 4 82 34 51 160 95 280 98 81 2 86 1 115 -27 24
-23 31 -38 31 -68 0 -35 -4 -41 -35 -54 -45 -18 -68 -18 -32 2 42 23 35 64
-16 90 -47 25 -190 4 -276 -40 -36 -19 -39 -44 -16 -124 24 -80 40 -86 220
-90 l150 -4 22 30 23 31 -93 -5 -92 -4 158 53 c91 32 164 62 173 73 65 81 174
281 174 319 0 7 -16 51 -36 97 -20 45 -43 105 -51 131 -16 53 -41 70 -123 83
l-41 7 6 -29 c4 -16 10 -41 15 -56 5 -14 7 -28 5 -30 -2 -2 -62 3 -134 11
l-130 14 -56 -27 c-31 -14 -57 -26 -59 -26 -2 0 -36 -18 -75 -40 -100 -57
-190 -88 -274 -96 -62 -5 -83 -3 -152 21 -44 15 -144 58 -221 96 l-142 70
-122 -21 c-68 -11 -125 -18 -128 -15 -2 2 2 25 10 49 8 25 13 48 10 51 -3 3
-21 5 -39 5 -19 0 -33 3 -31 8 2 4 25 54 52 110 40 83 55 104 75 109 28 6 61
31 61 45 0 4 -14 8 -31 8 -35 0 -35 -4 6 102 30 77 47 101 37 53 -3 -20 0 -25
15 -25 28 0 63 28 63 52 0 18 -4 20 -38 14 l-39 -6 29 112 c60 235 122 755
130 1106 5 175 -24 117 -47 -95 -8 -78 -15 -144 -15 -147 0 -3 -21 -8 -47 -11
-64 -9 -195 -76 -179 -92 2 -2 25 1 51 7 26 6 74 14 106 19 70 9 66 20 43
-136 -17 -116 -21 -123 -89 -144 -61 -19 -95 -38 -150 -82 -47 -37 -48 -39
-20 -34 64 10 210 53 217 62 4 6 8 24 9 40 1 18 3 23 6 12 9 -35 -63 -420
-101 -542 -35 -110 -100 -267 -133 -323 -16 -26 -37 -65 -48 -86 -11 -22 -43
-63 -72 -92 l-52 -52 77 3 c42 2 65 1 50 -1 -24 -5 -30 -16 -64 -117 -20 -62
-48 -133 -62 -159 l-25 -48 28 -52 c97 -179 188 -281 264 -294 20 -3 79 -16
131 -29 l95 -23 -77 -1 c-42 -1 -88 3 -102 9 -14 5 -26 8 -26 6 0 -2 16 -20
35 -41 l34 -38 135 1 c74 0 150 5 170 12 83 27 125 129 73 178 -74 69 -232 96
-305 52 -31 -19 -32 -21 -18 -48 8 -15 27 -34 43 -42 26 -13 26 -14 7 -17 -33
-6 -93 23 -105 51 -32 69 34 118 157 117 41 0 95 -7 119 -16 59 -20 139 -60
159 -80 34 -34 7 -163 -46 -215 l-31 -31 -138 3 c-77 2 -139 2 -139 0 0 -2 17
-21 38 -44 55 -60 194 -123 292 -131 98 -8 140 -17 140 -30 0 -5 -16 -8 -38
-5 l-38 6 -12 -57 c-14 -67 -25 -81 -65 -81 l-30 0 6 58 c4 32 9 66 12 74 5
12 -2 17 -28 20 -33 4 -34 3 -57 -62 -12 -36 -27 -71 -33 -77 -11 -15 -97 -18
-97 -3 0 10 42 142 55 173 6 14 2 17 -22 17 -32 0 -47 -17 -113 -128 -33 -54
-79 -92 -114 -92 -17 0 -18 5 -12 47 3 26 24 84 46 130 40 82 43 103 15 103
-17 0 -105 -121 -142 -195 -14 -27 -27 -51 -28 -53 -1 -1 -14 3 -29 9 -18 9
-26 20 -26 39 0 34 49 178 86 252 15 32 25 60 22 64 -22 21 -95 -83 -162 -228
-28 -62 -32 -65 -61 -44 -18 13 -18 19 -7 87 12 78 51 185 84 232 11 15 18 37
16 49 -3 21 -5 21 -38 -13 -47 -47 -117 -173 -132 -237 -14 -55 -17 -58 -51
-41 -39 21 -40 25 -15 144 5 28 34 100 64 161 30 61 54 114 54 118 0 4 -13 -2
-28 -13 -49 -35 -151 -200 -182 -294 -6 -21 -15 -37 -18 -35 -81 41 -82 41
-82 76 0 65 81 241 178 387 33 50 58 92 57 94 -2 2 -19 -6 -38 -18 -68 -42
-176 -192 -247 -344 -25 -53 -49 -96 -55 -97 -5 0 -23 25 -40 55 -28 52 -29
57 -18 110 7 33 32 89 62 138 72 120 240 312 318 364 24 16 31 43 13 43 -35 0
-197 -126 -285 -221 -54 -58 -165 -205 -165 -218 0 -5 -4 -13 -10 -16 -13 -8
-60 69 -60 101 0 45 89 201 145 254 14 13 25 34 25 47 0 21 -3 22 -20 13 -38
-20 -155 -127 -180 -163 -14 -20 -28 -37 -32 -37 -3 0 -18 20 -33 45 l-26 46
35 62 c19 34 62 93 96 130 47 51 57 67 43 67 -29 0 -131 -81 -180 -143 l-21
-27 -26 31 c-14 17 -26 39 -26 48 0 19 40 76 120 171 31 38 45 62 42 78 -3 21
-6 20 -69 -25 l-66 -47 6 37 c15 91 78 183 181 263 22 18 37 37 35 46 -4 14
-11 13 -53 -8 -28 -13 -53 -24 -57 -24 -4 0 0 22 9 50 15 47 22 54 113 116 54
36 100 72 103 79 9 25 -52 24 -90 -3 -20 -13 -38 -21 -41 -19 -2 3 14 47 37
99 76 170 76 170 140 206 32 17 66 32 74 32 9 0 16 2 16 4 0 2 3 11 6 20 5 13
-1 16 -33 16 -21 0 -49 -7 -61 -16 -13 -9 -26 -14 -28 -11 -10 10 58 157 81
175 21 17 161 81 208 96 10 3 17 12 15 19 -7 19 -85 20 -130 2 -22 -9 -43 -13
-46 -11 -3 3 12 46 33 97 l38 90 66 33 c36 19 94 44 128 56 41 15 65 29 69 42
11 37 -9 39 -101 13 -51 -15 -92 -22 -97 -17 -11 11 7 58 39 101 27 35 120 83
225 116 30 10 66 26 79 36 21 16 22 18 7 24 -15 6 -143 -18 -216 -40 -21 -7
-21 -6 -10 21 7 16 28 55 46 87 61 104 28 81 -64 -44 -91 -126 -236 -364 -249
-409 -4 -14 -43 -110 -87 -215 -44 -104 -107 -253 -139 -330 -82 -195 -99
-226 -138 -252 -59 -40 -68 -33 -73 50 -6 88 0 99 87 168 36 28 65 55 65 60 0
19 -52 8 -104 -21 l-54 -31 -11 63 c-10 58 -9 63 11 86 13 13 37 32 54 43 39
23 62 77 38 86 -8 3 -37 -6 -63 -21 -27 -14 -53 -26 -59 -26 -6 0 -16 31 -23
70 -13 77 -9 89 39 109 15 6 35 25 44 42 16 27 16 30 1 36 -9 3 -36 -1 -61
-10 -54 -20 -65 -14 -94 53 -11 25 -26 53 -35 62 -19 21 -11 34 24 42 82 20
163 50 168 64 12 31 -39 39 -140 22 -27 -4 -54 -5 -58 -1 -12 11 -10 152 2
164 5 5 54 9 108 8 88 -2 101 0 117 18 23 25 25 24 -109 49 l-100 19 0 82 c0
52 4 86 12 93 8 6 47 4 119 -7 105 -17 107 -17 127 3 17 18 18 23 7 36 -7 9
-20 16 -29 16 -9 0 -55 13 -101 28 -95 32 -99 38 -85 129 7 51 13 52 145 24
88 -20 122 -16 134 14 12 33 -12 51 -119 85 l-106 34 6 46 c12 96 16 110 30
110 8 0 49 -16 90 -35 120 -56 120 -57 149 -34 22 17 24 23 14 50 -9 25 -27
39 -104 77 -90 45 -94 48 -94 79 0 35 36 123 51 123 5 0 45 -32 90 -70 87 -75
128 -89 149 -51 18 35 11 47 -64 112 -41 35 -75 72 -75 81 -1 21 67 78 85 71
8 -3 14 -8 14 -12 0 -4 26 -35 58 -70 l58 -64 32 17 c46 24 42 52 -19 127
l-51 64 29 22 c35 28 49 29 63 3 10 -19 12 -19 61 14 27 19 59 38 70 41 14 5
18 12 14 23 -4 10 -23 103 -41 207 -39 220 -40 228 -93 482 l-40 191 -92 171
c-50 94 -99 176 -109 181 -38 20 -65 12 -78 -23 -17 -47 -16 -54 22 -129 19
-37 32 -70 28 -72 -4 -2 -92 -4 -196 -4 -126 -1 -199 -5 -220 -13 -60 -24 -88
-75 -46 -86 31 -8 24 -17 -32 -48 -78 -42 -209 -128 -271 -177 -92 -72 -193
-208 -236 -316 -11 -26 -40 -95 -65 -155 -25 -59 -66 -164 -91 -234 -48 -133
-64 -168 -71 -160 -6 5 40 171 62 227 30 73 7 65 -36 -13 -90 -165 -50 -29 52
178 154 309 339 511 586 640 71 37 100 74 47 61 -37 -9 -220 -111 -295 -164
-175 -123 -333 -311 -434 -515 -16 -32 -31 -56 -33 -53 -3 2 2 17 10 33 8 15
17 39 21 53 6 23 4 22 -23 -9 -49 -56 -44 -32 15 63 172 279 340 433 642 586
64 32 128 68 141 78 l24 19 -29 7 c-24 6 -58 -7 -202 -79 -271 -136 -363 -211
-549 -447 -47 -60 -88 -108 -93 -108 -18 0 11 85 48 143 53 81 226 253 328
326 91 64 290 169 382 200 80 27 214 36 317 21 44 -6 103 -14 130 -17 47 -5
49 -4 30 11 -58 46 -292 79 -412 57 -191 -35 -479 -183 -685 -351 -94 -77
-104 -77 -73 -4 21 51 99 145 202 245 138 134 242 209 473 343 45 26 45 26 15
26 -41 0 -173 -43 -262 -86 -82 -39 -154 -94 -302 -232 -79 -73 -103 -91 -98
-72 4 14 7 37 7 52 0 48 202 295 330 404 71 60 162 127 228 166 l67 40 -58 -5
c-114 -11 -251 -94 -417 -253 -53 -52 -100 -94 -102 -94 -3 0 1 29 7 64 16 82
51 132 170 242 126 117 245 201 385 271 94 47 110 58 88 61 -40 5 -184 -36
-258 -73 -120 -60 -150 -79 -231 -143 -45 -35 -83 -62 -85 -59 -9 8 17 101 36
132 11 17 34 44 52 61 226 204 415 308 610 337 102 15 80 27 -48 27 -180 0
-329 -55 -531 -198 -69 -48 -69 -47 -53 39 12 64 47 104 162 185 142 101 325
170 513 194 50 7 158 12 240 12 145 -1 191 6 170 26 -32 30 -469 43 -585 17
-105 -22 -279 -83 -363 -125 -43 -22 -81 -40 -84 -40 -2 0 -2 19 2 43 8 54 43
86 169 156 185 102 328 150 533 176 59 7 136 12 170 10 57 -2 95 7 82 19 -3 3
-50 13 -104 22 -74 12 -130 14 -215 9 -194 -10 -264 -28 -473 -117 -65 -27
-121 -47 -124 -44 -4 3 -1 17 5 31 7 14 12 34 12 45 0 59 255 148 487 171 95
9 151 9 250 0 137 -13 320 -47 419 -79 33 -10 69 -16 79 -12 18 6 17 9 -10 22
-181 94 -475 159 -715 159 -113 0 -272 -17 -372 -40 -82 -19 -18 39 74 67 36
12 94 24 127 28 34 3 61 10 61 14 0 15 -118 40 -186 40 -96 -1 -151 -13 -180
-41 -61 -57 -116 -232 -200 -629 -48 -226 -79 -385 -95 -485 -5 -33 -14 -80
-19 -105 -15 -69 -58 -300 -64 -345 -8 -60 -44 -289 -61 -385 -46 -271 -59
-338 -90 -466 -42 -172 -57 -211 -114 -293 -47 -67 -263 -291 -342 -354 -46
-37 -133 -67 -194 -67 -30 0 -95 33 -95 48 0 5 11 14 25 20 14 7 47 32 74 57
27 25 62 48 80 51 25 5 31 11 29 28 -2 14 -9 20 -21 18 -45 -8 -8 22 86 68
107 53 156 85 146 95 -4 3 -24 -1 -45 -9 -133 -50 -163 -60 -169 -54 -13 13 7
29 81 64 41 19 74 39 74 44 0 18 -19 19 -55 4 -20 -8 -49 -14 -64 -12 -23 3
-20 6 34 37 94 53 215 153 215 178 0 22 -21 15 -74 -26 -79 -60 -181 -121
-202 -121 -14 1 -4 14 37 53 73 68 111 120 103 141 -8 22 -10 21 -46 -20 -28
-32 -109 -94 -122 -94 -14 0 -3 21 34 66 47 57 120 193 120 223 0 36 -18 23
-69 -51 -59 -86 -117 -155 -124 -148 -3 3 19 49 50 102 31 55 56 113 58 133 5
50 -10 36 -82 -76 -31 -49 -60 -89 -64 -89 -22 0 -13 29 47 151 83 167 85 174
75 201 l-8 22 -13 -24 c-8 -14 -28 -53 -45 -86 -52 -100 -119 -204 -130 -201
-17 6 -6 58 30 137 46 105 68 176 60 200 -3 11 -9 20 -13 20 -4 -1 -33 -54
-64 -118 -31 -64 -63 -126 -71 -136 -14 -19 -15 -19 -25 1 -9 16 -7 29 9 63
33 67 74 240 65 274 -9 37 -18 26 -46 -59 -30 -93 -68 -167 -83 -162 -21 7
-18 50 8 127 15 41 29 108 32 148 5 62 4 72 -11 72 -10 0 -16 -8 -16 -22 0
-13 -14 -61 -30 -107 -17 -46 -30 -85 -30 -87 0 -12 -22 -1 -34 19 -14 20 -12
33 14 137 32 126 51 300 32 300 -11 0 -16 -16 -42 -120 -17 -73 -61 -190 -71
-190 -5 0 -16 14 -25 31 -15 30 -15 40 0 136 22 139 30 274 17 293 -14 20 -21
10 -27 -41 -5 -45 -35 -163 -53 -211 -12 -32 -26 -36 -35 -10 -4 9 -14 30 -22
45 -15 26 -15 35 1 95 25 101 45 221 45 275 0 39 -3 48 -16 45 -11 -2 -23 -32
-40 -98 -32 -126 -54 -190 -65 -190 -12 0 -41 58 -35 69 9 14 15 234 7 254
-11 31 -29 0 -46 -83 -9 -41 -17 -76 -19 -78 -3 -2 -12 8 -22 23 -17 26 -17
30 3 113 15 60 18 92 12 104 -16 29 -25 21 -49 -42 -20 -54 -24 -59 -36 -43
-22 29 -16 66 25 172 42 108 92 197 140 249 23 25 38 32 66 32 l36 0 -7 -45
c-3 -25 -3 -61 0 -81 11 -56 36 -40 56 36 20 77 39 117 72 146 25 24 97 64
113 64 6 0 9 -30 6 -81 -6 -139 34 -133 64 10 9 42 19 84 22 95 7 24 72 96 88
96 13 0 31 -142 20 -159 -3 -5 1 -11 7 -14 22 -7 48 45 48 97 0 78 20 173 44
208 37 56 46 48 46 -40 0 -81 6 -112 20 -112 16 0 29 67 35 195 11 215 21 277
54 342 45 88 67 113 181 210 230 195 223 190 284 197 l56 7 98 -65 c108 -72
160 -94 230 -98 58 -4 72 15 17 23 -42 5 -163 56 -180 74 -5 6 -27 22 -48 36
-85 54 -183 270 -166 365 11 61 54 157 78 173 21 13 21 12 21 -56 0 -105 36
-199 133 -349 48 -74 70 -99 120 -131 89 -58 190 -107 282 -136 113 -35 145
-41 145 -27 0 6 -15 17 -32 23 -92 33 -271 130 -338 184 -135 107 -192 188
-235 337 -16 56 -16 62 0 125 10 36 26 82 35 101 18 35 98 125 105 118 2 -2
-1 -23 -6 -48 -5 -24 -11 -80 -12 -124 -1 -66 4 -95 27 -161 38 -107 47 -123
114 -203 138 -164 242 -229 532 -336 309 -113 588 -220 730 -279 214 -88 240
-98 240 -87 0 25 -177 120 -385 207 -60 25 -166 70 -235 99 -69 29 -175 73
-236 97 -131 54 -353 162 -409 200 -83 57 -212 196 -255 277 -21 38 -32 196
-19 258 16 78 86 212 110 212 5 0 -1 -25 -12 -57 -10 -31 -19 -70 -19 -87 0
-45 57 -251 85 -305 31 -61 146 -195 202 -235 56 -39 146 -86 153 -79 3 3 -20
26 -50 52 -172 145 -230 222 -276 366 -48 149 -42 326 13 387 19 21 36 14 28
-11 -9 -28 20 -159 55 -245 58 -147 147 -257 292 -364 176 -129 478 -277 478
-233 0 6 -11 16 -24 20 -13 5 -48 26 -79 45 -31 20 -58 36 -61 36 -16 0 -249
151 -301 194 -80 67 -171 170 -206 232 -42 76 -82 210 -83 279 -1 72 23 141
63 179 l28 27 7 -85 c15 -199 99 -354 273 -504 100 -86 200 -149 247 -154 39
-4 39 -4 16 11 -118 78 -301 249 -358 335 -128 191 -148 380 -52 476 11 11 23
20 28 20 4 0 8 -39 8 -88 3 -162 68 -294 224 -451 81 -81 184 -161 208 -161 8
0 -37 50 -102 111 -181 172 -230 253 -261 425 -18 101 -8 143 45 196 21 21 42
38 47 38 6 0 8 -29 5 -73 -11 -172 63 -314 272 -522 97 -97 216 -185 340 -254
83 -46 151 -52 74 -6 -127 74 -362 269 -451 372 -40 47 -86 116 -117 178 -45
90 -51 107 -52 170 -2 77 16 126 59 170 35 34 56 33 46 -2 -13 -52 -6 -157 14
-213 32 -87 88 -167 197 -279 113 -115 195 -182 258 -211 76 -35 73 -22 -16
69 -106 106 -165 187 -219 301 -35 75 -41 95 -45 177 -5 89 -3 96 28 159 23
47 45 75 78 99 61 45 80 46 54 3 -49 -81 -66 -221 -38 -323 20 -75 80 -191
142 -273 102 -136 224 -246 224 -203 0 5 -28 42 -62 83 -119 139 -182 240
-230 363 -19 49 -23 79 -23 165 0 91 4 111 25 155 26 51 97 115 129 115 15 0
11 -12 -22 -77 -39 -78 -39 -78 -32 -162 8 -110 34 -183 107 -307 102 -173
299 -417 306 -380 2 10 -6 28 -18 41 -22 24 -44 53 -141 193 -70 102 -165 287
-184 363 -35 133 17 283 114 333 16 9 31 13 34 10 3 -3 -6 -26 -20 -50 -24
-43 -25 -52 -20 -147 3 -59 13 -125 23 -157 39 -116 163 -328 185 -314 5 3 -1
24 -14 47 -42 77 -58 133 -64 234 -5 80 -2 110 12 154 24 73 69 157 106 197
29 30 87 68 94 60 2 -2 -7 -26 -20 -53 -43 -87 -59 -170 -60 -300 0 -74 5
-139 14 -170 15 -51 60 -150 66 -143 2 1 -6 41 -17 88 -48 202 3 430 124 551
32 32 60 50 83 55 20 3 38 5 40 2 2 -2 -16 -45 -41 -95 -76 -152 -101 -362
-63 -531 14 -65 37 -114 49 -107 8 5 8 11 1 19 -6 7 -8 15 -6 18 3 3 1 27 -5
53 -15 67 -13 215 3 310 27 149 107 295 191 346 17 10 32 16 35 14 2 -3 -8
-29 -23 -58z m-4259 -3589 c-3 -7 -5 -2 -5 12 0 14 2 19 5 13 2 -7 2 -19 0
-25z m0 -70 c-3 -8 -6 -5 -6 6 -1 11 2 17 5 13 3 -3 4 -12 1 -19z m6278 -516
c3 -26 7 -89 7 -138 1 -77 -3 -99 -24 -145 -28 -60 -139 -177 -203 -214 -106
-62 -270 -71 -349 -19 -46 31 -34 44 16 17 25 -13 54 -17 123 -16 134 2 188
25 284 122 42 43 87 100 101 127 23 46 25 58 23 182 -2 132 9 175 22 84z
m-3441 -28 c-36 -32 -52 -40 -61 -32 -29 24 -9 52 54 73 59 20 61 6 7 -41z
m-202 -101 c4 -149 9 -161 98 -256 41 -45 82 -75 133 -101 65 -33 81 -37 147
-37 41 0 103 6 137 14 64 15 86 9 64 -17 -12 -14 -50 -25 -106 -31 -119 -13
-208 3 -293 52 -58 34 -149 123 -187 183 -26 41 -29 53 -30 150 -3 125 3 170
20 170 10 0 14 -32 17 -127z m3528 107 c-19 -13 -30 -13 -30 0 0 6 10 10 23
10 18 0 19 -2 7 -10z m-10 -60 c-14 -4 -29 -4 -35 -1 -5 3 1 8 15 11 14 4 29
4 35 1 5 -3 -1 -8 -15 -11z m440 -50 c65 -45 106 -92 193 -226 113 -173 197
-380 257 -635 33 -137 34 -149 22 -149 -5 0 -21 48 -36 107 -15 59 -29 110
-32 112 -2 3 -9 0 -14 -5 -6 -6 2 -56 20 -133 32 -130 36 -166 20 -156 -5 3
-10 15 -10 25 0 30 -67 250 -115 381 -63 169 -172 391 -232 474 -51 71 -95
111 -167 155 -22 13 -34 26 -28 28 21 7 110 -50 166 -106 33 -33 56 -50 56
-40 0 23 -111 139 -174 183 -30 21 -53 42 -50 46 6 11 51 -11 124 -61z m-799
-7 c4 -48 -16 -80 -37 -62 -18 15 -18 30 2 79 19 48 31 42 35 -17z m-3381 39
c0 -4 -13 -15 -28 -24 -74 -44 -242 -223 -242 -259 0 -7 33 19 73 57 69 67
173 142 182 132 3 -3 -23 -27 -57 -53 -75 -58 -85 -69 -148 -162 -85 -128
-170 -325 -269 -623 -18 -56 -41 -106 -41 -90 0 3 11 47 24 98 23 93 19 121
-9 57 -42 -98 -48 -109 -52 -98 -9 25 63 267 127 428 64 161 169 332 252 412
36 35 168 132 181 133 4 0 7 -4 7 -8z m355 -32 c-3 -5 -15 -10 -26 -10 -10 0
-19 5 -19 10 0 6 12 10 26 10 14 0 23 -4 19 -10z m3385 -10 c8 -5 12 -12 8
-15 -8 -8 -58 5 -58 16 0 12 31 11 50 -1z m-3380 -60 c-27 -21 -50 -26 -50
-10 0 11 35 28 60 29 10 0 6 -6 -10 -19z m3375 -11 c16 -16 -20 -10 -41 7 -18
14 -18 15 6 8 14 -3 29 -10 35 -15z m-3342 -51 c-18 -18 -36 -28 -40 -24 -8 8
45 56 62 56 5 0 -5 -14 -22 -32z m3290 -2 c9 -7 17 -16 17 -20 0 -13 -28 -5
-45 14 -21 24 -1 28 28 6z m-3248 -51 c-18 -34 -35 -46 -35 -25 0 15 42 71 49
64 3 -2 -3 -20 -14 -39z m3663 1 c85 -57 163 -158 247 -320 88 -169 175 -478
175 -621 0 -66 -15 -47 -29 39 -7 38 -20 86 -29 105 l-16 36 -4 -41 c-1 -22 1
-83 7 -135 5 -52 6 -98 1 -102 -8 -9 -30 76 -30 118 0 35 -102 358 -138 437
-68 149 -163 270 -264 338 -37 25 -47 43 -28 55 19 12 80 -25 151 -93 83 -77
123 -104 112 -75 -10 27 -127 166 -177 209 -47 41 -69 84 -43 84 8 0 37 -15
65 -34z m-452 7 c15 -21 18 -33 6 -33 -5 0 -14 11 -20 25 -13 29 -5 33 14 8z
m-3156 -10 c0 -24 -42 -91 -47 -76 -4 11 33 93 42 93 3 0 5 -8 5 -17z m-480 0
c0 -3 -43 -50 -96 -105 -86 -88 -146 -179 -131 -195 3 -3 38 27 77 65 96 95
190 157 190 124 0 -5 -27 -30 -60 -55 -33 -26 -71 -65 -85 -86 -45 -72 -132
-264 -174 -383 -44 -124 -111 -360 -111 -389 0 -10 -5 -21 -12 -25 -11 -7 -8
80 7 196 6 42 5 44 -9 26 -8 -10 -23 -52 -32 -92 -16 -74 -34 -98 -34 -46 0
31 34 186 54 252 133 423 230 613 355 695 36 24 61 31 61 18z m3291 -50 c-9
-16 -10 -15 -11 8 0 14 3 29 8 33 12 12 14 -22 3 -41z m299 -7 c-1 -21 -1 -21
-15 -2 -8 11 -15 29 -15 40 1 21 1 21 15 2 8 -11 15 -29 15 -40z m-3064 19
c-3 -13 -11 -37 -17 -52 -9 -24 -12 -26 -20 -11 -6 12 -4 28 8 52 19 41 38 48
29 11z m223 -45 c0 -24 0 -24 -14 -6 -8 11 -15 34 -15 50 l1 31 14 -25 c8 -14
14 -36 14 -50z m2611 40 c0 -16 -4 -30 -10 -30 -11 0 -14 43 -3 53 11 12 13 8
13 -23z m-2670 -24 c8 -36 -3 -59 -14 -30 -8 20 -8 79 0 71 3 -3 9 -22 14 -41z
m2720 14 c0 -16 -4 -30 -10 -30 -5 0 -10 14 -10 30 0 17 5 30 10 30 6 0 10
-13 10 -30z m120 -6 c0 -14 -4 -22 -10 -19 -5 3 -10 17 -10 31 0 14 4 22 10
19 6 -3 10 -17 10 -31z m-2957 -26 c-6 -41 -23 -53 -23 -15 0 34 12 69 20 60
4 -4 5 -25 3 -45z m57 7 c0 -25 -4 -45 -10 -45 -11 0 -14 73 -3 83 11 12 13 8
13 -38z m2840 18 c0 -21 -3 -24 -9 -14 -5 8 -7 20 -4 28 8 21 13 15 13 -14z
m-3350 -152 c0 -4 -25 -28 -55 -52 -68 -53 -135 -149 -155 -220 -14 -46 6 -35
88 52 71 74 152 139 175 139 5 0 -19 -30 -53 -67 -145 -155 -226 -327 -321
-681 -27 -102 -53 -189 -56 -192 -10 -9 7 113 27 199 11 45 20 94 20 108 l0
26 -20 -25 c-14 -18 -70 -221 -70 -254 0 -2 -4 -4 -10 -4 -15 0 -12 58 10 171
47 244 159 556 242 677 45 66 178 158 178 123z m3851 -11 c166 -85 297 -351
365 -741 10 -54 20 -97 23 -95 3 2 4 -16 2 -40 -1 -24 -7 -44 -12 -44 -5 0 -9
7 -9 16 0 40 -33 154 -44 154 -11 0 -11 -14 -1 -72 20 -116 28 -198 18 -198
-4 0 -23 71 -40 158 -42 200 -89 345 -165 502 -56 117 -66 131 -155 218 -52
52 -92 96 -90 99 8 8 93 -53 180 -130 43 -38 80 -67 82 -65 17 17 -100 156
-182 217 -57 42 -39 55 28 21z m-159 -146 c76 -39 183 -164 240 -279 80 -160
169 -534 156 -655 -3 -30 -6 -22 -22 47 -10 46 -25 88 -32 94 -17 14 -18 -5
-3 -121 11 -91 3 -184 -12 -142 -5 12 -14 22 -20 22 -8 0 -8 4 -1 13 12 14
-12 159 -58 343 -29 116 -105 326 -151 415 -27 55 -110 141 -171 181 -47 31
-60 48 -35 48 18 -1 134 -82 186 -132 25 -24 54 -49 63 -57 15 -11 17 -10 13
9 -8 42 -99 149 -179 208 -34 26 -18 29 26 6z m-3568 -16 c-4 -7 -26 -35 -49
-63 -85 -104 -147 -205 -125 -205 12 0 75 64 173 173 33 37 64 67 68 67 21 0
4 -26 -70 -111 -129 -145 -159 -210 -230 -503 -22 -89 -50 -204 -63 -256 -23
-95 -23 -95 -26 -46 -2 27 4 94 12 148 19 119 20 146 5 131 -11 -11 -26 -66
-54 -195 -9 -43 -21 -78 -27 -78 -12 0 -3 124 17 215 43 199 114 416 165 505
52 88 176 229 203 230 5 0 5 -6 1 -12z m3288 -92 c29 -19 90 -66 135 -105 45
-39 84 -71 87 -71 31 0 -52 100 -138 168 -52 40 -20 35 42 -8 156 -106 248
-253 301 -480 63 -269 91 -453 91 -607 0 -94 -16 -112 -22 -25 -6 77 -48 262
-61 262 -6 0 -7 -25 -3 -67 15 -168 18 -270 9 -276 -6 -4 -15 35 -22 101 -25
222 -110 587 -183 789 -42 117 -106 197 -238 296 -79 60 -76 57 -62 57 6 0 35
-15 64 -34z m-3085 -86 c-107 -102 -120 -124 -186 -315 -66 -189 -125 -431
-176 -720 -19 -105 -18 -19 1 120 8 61 17 139 20 175 5 58 5 63 -8 45 -8 -11
-25 -69 -37 -130 -13 -60 -25 -121 -28 -135 -3 -15 -7 -19 -10 -11 -13 35 37
357 83 533 44 171 79 255 149 353 45 63 162 181 171 172 3 -3 -17 -26 -45 -52
-54 -50 -124 -158 -119 -184 2 -11 14 -2 38 28 69 87 133 151 184 185 28 19
53 32 55 30 2 -2 -39 -44 -92 -94z m-74 -1885 c4 -8 2 -17 -3 -20 -6 -4 -10 3
-10 14 0 25 6 27 13 6z m211 -480 c-4 -8 -8 -15 -10 -15 -2 0 -4 7 -4 15 0 8
4 15 10 15 5 0 7 -7 4 -15z m-177 -96 l-22 -64 -3 44 c-3 34 2 49 19 67 12 13
24 22 26 21 1 -2 -7 -32 -20 -68z m3286 64 c11 -19 17 -83 9 -83 -8 0 -42 69
-42 85 0 8 28 6 33 -2z m-1005 -992 c28 -13 52 -27 52 -32 0 -11 9 -12 -106
12 -129 27 -168 22 -385 -47 -169 -54 -177 -56 -259 -51 -77 5 -189 30 -325
71 -147 45 -284 41 -346 -11 -16 -14 -33 -23 -36 -20 -12 13 30 59 70 78 70
31 161 25 344 -22 317 -82 330 -83 488 -29 196 67 253 80 355 77 73 -3 107 -9
148 -26z m-635 -284 c-3 -5 -10 -4 -15 1 -6 6 -7 16 -3 22 6 9 9 9 16 -1 4 -7
5 -17 2 -22z m-3 -78 c0 -11 -4 -17 -10 -14 -5 3 -10 13 -10 21 0 8 5 14 10
14 6 0 10 -9 10 -21z m10 -80 c0 -10 -4 -19 -9 -19 -10 0 -21 36 -14 44 10 10
23 -5 23 -25z m-8 -71 c6 -17 -1 -38 -13 -38 -5 0 -9 11 -9 25 0 26 14 34 22
13z m-3927 -217 c3 -5 -4 -13 -16 -16 -16 -5 -20 -14 -19 -43 3 -58 2 -61 -29
-77 -31 -15 -71 -9 -86 14 -8 14 1 14 27 0 11 -6 31 -8 44 -5 21 6 24 12 24
56 0 40 -4 50 -20 55 -31 10 -13 25 30 25 21 0 41 -4 45 -9z m477 -19 c11 -13
10 -14 -7 -9 -62 19 -76 19 -95 2 -11 -10 -20 -26 -20 -36 0 -24 37 -49 72
-49 16 0 28 -4 28 -10 0 -5 -17 -10 -38 -10 -85 0 -115 93 -40 124 35 15 83 9
100 -12z m7702 -14 c20 -28 21 -82 3 -97 -8 -6 -28 -14 -45 -17 -61 -12 -99
39 -76 100 9 23 23 20 17 -4 -16 -60 29 -94 73 -57 34 29 25 70 -18 88 -20 8
-25 14 -17 20 16 10 43 -5 63 -33z m-7949 7 c29 -38 30 -65 3 -92 -28 -27 -80
-37 -125 -23 -16 5 -20 9 -10 9 14 1 17 11 17 56 0 42 -3 55 -15 55 -8 0 -15
5 -15 11 0 8 21 10 65 7 49 -3 68 -9 80 -23z m7530 -1 c32 -35 32 -78 0 -109
-27 -28 -43 -31 -69 -12 -17 13 -16 14 12 14 17 0 38 5 46 13 33 26 9 90 -34
90 -24 0 -35 -31 -16 -46 18 -13 21 -24 7 -24 -15 0 -41 30 -41 46 0 19 36 54
55 54 9 0 27 -12 40 -26z m206 16 c30 -17 25 -63 -11 -93 -16 -14 -30 -27 -30
-30 0 -2 14 -2 30 1 18 3 30 0 30 -7 0 -7 -23 -11 -62 -11 -69 1 -69 -1 7 53
17 12 25 27 25 47 0 35 -13 45 -41 30 -16 -9 -19 -18 -15 -36 8 -31 -20 -33
-30 -2 -13 41 51 72 97 48z m-8228 -11 c-8 -8 -2 -26 24 -66 37 -58 36 -87 -1
-41 -18 24 -26 27 -58 22 -26 -5 -39 -14 -49 -33 -9 -20 -13 -22 -16 -10 -2 9
10 37 27 62 36 53 36 57 9 57 -11 0 -17 5 -14 10 3 6 25 10 48 10 30 0 38 -3
30 -11z m7837 -60 c0 -44 -4 -68 -10 -64 -5 3 -10 35 -10 71 0 36 4 64 10 64
6 0 10 -30 10 -71z m-7732 43 c2 -7 -3 -12 -12 -12 -9 0 -16 7 -16 16 0 17 22
14 28 -4z m667 -59 c14 -15 25 -34 25 -42 0 -9 -3 -11 -8 -5 -4 5 -20 24 -36
42 -17 17 -25 32 -18 32 6 0 23 -12 37 -27z m73 -12 c3 -8 -1 -12 -9 -9 -7 2
-15 10 -17 17 -3 8 1 12 9 9 7 -2 15 -10 17 -17z m-278 -17 c0 -8 -4 -12 -10
-9 -5 3 -10 13 -10 21 0 8 5 12 10 9 6 -3 10 -13 10 -21z m-270 0 c0 -9 -5
-14 -12 -12 -18 6 -21 28 -4 28 9 0 16 -7 16 -16z"/>
<path d="M4993 10193 c-5 -16 -7 -80 -7 -143 1 -133 22 -207 63 -222 21 -7 23
-6 17 14 -23 77 -37 167 -43 266 -6 111 -16 137 -30 85z"/>
<path d="M5975 10123 c-6 -85 -14 -134 -42 -266 -5 -26 -3 -28 18 -25 37 5 52
69 53 230 1 91 -3 141 -10 148 -9 9 -14 -12 -19 -87z"/>
<path d="M5482 10193 c-17 -31 -15 -682 3 -988 26 -449 39 -373 43 240 2 362
-12 740 -28 759 -5 4 -13 0 -18 -11z"/>
<path d="M5796 10104 c-8 -111 -22 -236 -32 -266 -4 -12 0 -15 15 -11 28 7 42
69 48 218 4 104 2 134 -10 149 -13 18 -15 9 -21 -90z"/>
<path d="M5326 10169 c-17 -89 1 -331 49 -664 22 -144 25 -159 37 -147 8 8 6
49 -5 134 -9 68 -19 157 -22 198 -3 41 -8 90 -11 108 -4 17 -9 114 -13 214 -4
119 -10 183 -17 185 -6 2 -14 -10 -18 -28z"/>
<path d="M5173 10164 c-11 -42 -7 -242 6 -290 13 -47 36 -73 52 -57 6 6 5 28
-4 64 -8 30 -18 92 -21 139 -8 100 -16 164 -21 169 -2 2 -8 -10 -12 -25z"/>
<path d="M5648 10030 c5 -156 -10 -401 -34 -555 -16 -106 -17 -118 -5 -111 10
7 34 106 53 216 13 83 18 528 5 573 -17 62 -24 18 -19 -123z"/>
<path d="M4807 10153 c-18 -18 -6 -129 24 -216 36 -105 44 -117 71 -117 24 0
23 3 -21 108 -17 40 -37 106 -45 148 -14 78 -18 88 -29 77z"/>
<path d="M6156 10083 c-9 -43 -32 -117 -51 -164 -19 -48 -35 -89 -35 -93 0 -3
8 -6 18 -6 37 0 59 45 96 195 14 57 12 145 -4 145 -4 0 -15 -35 -24 -77z"/>
<path d="M6576 10121 c-5 -7 -32 -61 -61 -120 -30 -58 -67 -126 -84 -151 -36
-53 -39 -70 -11 -63 36 9 117 147 154 260 18 54 19 101 2 74z"/>
<path d="M6374 10108 c-4 -7 -27 -52 -51 -102 -24 -49 -52 -101 -62 -115 -10
-14 -22 -36 -26 -49 -6 -21 -4 -23 16 -20 41 5 168 275 139 293 -5 3 -12 0
-16 -7z"/>
<path d="M4606 10084 c-7 -18 50 -154 96 -231 24 -39 38 -53 55 -53 28 0 39
18 20 33 -27 23 -66 83 -111 175 -26 50 -48 92 -50 92 -2 0 -7 -7 -10 -16z"/>
<path d="M6748 10084 c-4 -6 -17 -37 -29 -69 -24 -66 -64 -136 -115 -206 -39
-54 -41 -59 -15 -59 11 0 34 17 51 38 38 45 107 181 115 226 8 39 3 86 -7 70z"/>
<path d="M4416 10053 c19 -87 52 -154 116 -235 27 -34 68 -52 68 -29 0 5 -33
58 -73 118 -40 60 -79 124 -86 141 -16 39 -34 42 -25 5z"/>
<path d="M4246 10028 c9 -63 27 -104 80 -183 72 -109 81 -118 99 -112 16 7 21
33 7 39 -18 7 -99 129 -137 206 -22 45 -43 82 -47 82 -3 0 -4 -15 -2 -32z"/>
<path d="M6955 9976 c-34 -56 -133 -184 -158 -205 -23 -19 -21 -38 5 -47 49
-15 194 193 186 269 l-3 32 -30 -49z"/>
<path d="M3995 9938 c12 -40 132 -201 186 -250 20 -17 59 -14 59 6 0 6 -30 40
-66 76 -36 36 -84 90 -107 120 -23 30 -46 58 -52 62 -19 14 -26 8 -20 -14z"/>
<path d="M7149 9903 c-9 -10 -31 -43 -50 -73 -18 -30 -54 -77 -78 -103 -36
-39 -42 -50 -30 -58 26 -16 38 -9 82 46 61 78 115 181 101 195 -7 7 -15 5 -25
-7z"/>
<path d="M3830 9870 c0 -43 163 -250 197 -250 33 0 37 17 10 42 -21 20 -112
125 -169 196 -19 23 -38 29 -38 12z"/>
<path d="M7281 9781 c-28 -43 -70 -99 -91 -124 -32 -36 -37 -46 -24 -51 47
-18 75 8 145 137 37 65 50 117 31 117 -5 0 -32 -36 -61 -79z"/>
<path d="M3651 9831 c-2 -30 79 -149 144 -214 58 -58 70 -65 87 -56 18 10 13
17 -64 97 -45 48 -102 110 -125 137 -23 28 -42 44 -42 36z"/>
<path d="M7502 9730 c-18 -33 -55 -89 -82 -125 -46 -61 -56 -95 -26 -95 21 0
34 15 78 90 63 106 94 190 71 190 -5 0 -23 -27 -41 -60z"/>
<path d="M3474 9709 c8 -40 64 -133 114 -190 36 -40 41 -43 65 -32 l26 12 -52
54 c-29 30 -70 85 -91 121 -42 72 -73 89 -62 35z"/>
<path d="M4900 9705 c0 -3 8 -23 19 -43 10 -20 46 -92 80 -160 47 -94 214
-382 238 -412 2 -2 8 2 12 9 11 17 -12 119 -37 163 -10 18 -38 71 -62 118 -24
47 -61 112 -83 145 -68 102 -167 209 -167 180z"/>
<path d="M7680 9648 c-13 -33 -44 -92 -68 -129 -44 -69 -47 -89 -12 -89 25 0
66 61 96 145 23 64 32 135 16 135 -4 0 -18 -28 -32 -62z"/>
<path d="M6037 9648 c-51 -65 -79 -108 -70 -108 4 0 1 -5 -9 -10 -9 -6 -32
-38 -51 -73 -19 -34 -47 -84 -62 -112 -31 -57 -99 -255 -90 -264 7 -7 6 -8
107 159 83 137 228 415 228 438 0 23 -19 12 -53 -30z"/>
<path d="M5777 9602 c-28 -52 -83 -191 -121 -306 -26 -81 -47 -163 -70 -276
-10 -48 -46 -366 -48 -424 -4 -86 16 -82 31 6 39 217 178 783 230 932 22 61
27 116 13 116 -5 0 -21 -22 -35 -48z"/>
<path d="M3299 9612 c17 -58 121 -222 141 -222 3 0 15 7 26 16 13 10 15 17 7
20 -17 7 -105 120 -134 171 -28 49 -52 59 -40 15z"/>
<path d="M5185 9603 c47 -119 137 -434 165 -580 23 -121 107 -463 115 -471 17
-17 16 27 -4 189 -12 100 -28 207 -36 238 -7 31 -24 97 -36 146 -40 165 -141
437 -177 478 -8 9 -19 17 -25 17 -5 0 -6 -8 -2 -17z"/>
<path d="M7864 9583 c-14 -67 -28 -102 -65 -165 -21 -36 -39 -69 -39 -72 0 -3
9 -6 20 -6 41 0 103 92 114 171 11 76 -15 138 -30 72z"/>
<path d="M4774 9514 c7 -28 90 -154 295 -451 129 -188 265 -445 335 -636 17
-46 36 -55 36 -18 0 76 -184 531 -258 638 -10 15 -50 75 -87 133 -89 137 -179
255 -211 277 -14 10 -46 33 -71 51 l-46 34 7 -28z"/>
<path d="M6225 9504 c-207 -149 -465 -511 -551 -771 -26 -80 -84 -307 -84
-330 0 -33 21 -7 36 45 35 121 159 399 227 507 111 179 287 412 386 513 47 48
62 72 44 72 -5 0 -30 -17 -58 -36z"/>
<path d="M3145 9473 c8 -47 45 -118 83 -163 25 -30 32 -33 46 -21 14 12 12 17
-19 53 -19 23 -49 69 -67 104 -37 72 -54 82 -43 27z"/>
<path d="M8072 9498 c-5 -7 -19 -35 -31 -62 -11 -27 -44 -86 -72 -132 -29 -47
-50 -86 -47 -89 2 -2 20 4 39 14 47 25 85 84 104 161 9 36 20 77 25 93 9 28 0
36 -18 15z"/>
<path d="M6432 9464 c-159 -110 -409 -375 -526 -557 -20 -33 -35 -64 -33 -70
5 -14 317 299 431 433 95 111 171 209 165 214 -2 1 -19 -8 -37 -20z"/>
<path d="M4550 9464 c0 -13 27 -55 93 -144 83 -113 299 -331 414 -418 87 -65
122 -81 79 -34 -14 15 -82 97 -152 182 -159 195 -165 202 -303 321 -104 90
-131 109 -131 93z"/>
<path d="M6750 9433 c-19 -8 -37 -18 -40 -22 -3 -3 -21 -14 -41 -24 -65 -33
-268 -197 -443 -357 -54 -50 -216 -234 -216 -246 0 -5 15 6 33 22 32 31 134
111 382 299 133 102 336 271 368 307 34 39 18 47 -43 21z"/>
<path d="M4226 9408 c138 -153 245 -243 572 -487 129 -95 176 -125 194 -119
17 6 -285 310 -396 399 -121 95 -357 239 -394 239 -3 0 7 -15 24 -32z"/>
<path d="M2950 9395 c0 -37 42 -124 89 -182 44 -55 60 -63 80 -40 8 10 3 20
-20 43 -17 16 -56 68 -86 117 -31 48 -57 87 -59 87 -2 0 -4 -11 -4 -25z"/>
<path d="M8205 9274 c-28 -33 -74 -85 -103 -117 -54 -59 -61 -85 -17 -65 28
13 133 136 159 186 30 58 12 56 -39 -4z"/>
<path d="M2760 9278 c0 -76 119 -238 175 -238 14 0 25 2 25 3 0 2 -18 23 -40
48 -23 24 -66 83 -96 131 -31 48 -58 88 -60 88 -2 0 -4 -14 -4 -32z"/>
<path d="M6975 9280 c-64 -14 -268 -140 -425 -263 -81 -64 -410 -402 -410
-422 0 -19 71 32 158 113 107 100 225 193 418 331 61 44 118 86 125 93 8 8 41
34 74 60 62 47 101 86 94 91 -2 2 -17 1 -34 -3z"/>
<path d="M4020 9263 c0 -12 58 -65 155 -143 44 -35 82 -67 85 -70 6 -7 117
-89 265 -196 60 -43 154 -116 208 -161 91 -76 127 -97 127 -74 0 26 -252 279
-356 358 -203 155 -484 320 -484 286z"/>
<path d="M3653 9163 c-14 -5 33 -48 95 -87 125 -78 378 -224 452 -261 169 -84
368 -161 382 -147 13 13 -146 128 -284 207 -105 60 -496 245 -517 245 -5 0
-33 11 -62 24 -30 12 -59 21 -66 19z"/>
<path d="M7245 9140 c-235 -79 -795 -403 -795 -460 0 -3 168 77 373 179 354
177 534 281 522 302 -7 11 6 14 -100 -21z"/>
<path d="M8233 9029 c-18 -5 -33 -11 -33 -14 0 -9 265 -78 281 -73 17 6 -35
53 -87 78 -43 21 -107 25 -161 9z"/>
<path d="M2583 8976 c-61 -44 -79 -63 -70 -72 4 -5 142 26 217 49 25 8 51 12
58 9 11 -3 11 0 1 16 -8 13 -28 22 -56 26 -24 3 -53 8 -66 11 -17 5 -39 -5
-84 -39z"/>
<path d="M8069 8937 c-19 -7 -46 -19 -59 -28 -23 -15 -21 -16 50 -18 41 -1
104 -6 140 -11 81 -12 80 -12 80 0 0 17 -86 60 -131 64 -24 3 -60 0 -80 -7z"/>
<path d="M6231 8849 c-174 -139 -313 -290 -386 -419 -55 -97 -107 -227 -103
-261 3 -26 9 -19 61 69 119 200 313 449 469 603 83 80 98 99 81 99 -5 0 -59
-41 -122 -91z"/>
<path d="M4696 8912 c-2 -4 20 -35 51 -67 147 -158 318 -379 427 -552 48 -77
96 -137 96 -122 0 25 -46 152 -74 206 -76 143 -302 414 -421 504 -52 39 -69
46 -79 31z"/>
<path d="M2784 8903 c-31 -4 -93 -57 -81 -69 3 -4 51 1 105 10 54 9 115 16
136 16 32 0 36 2 27 14 -23 27 -103 39 -187 29z"/>
<path d="M8596 8878 c3 -13 13 -36 22 -53 16 -33 122 -175 130 -175 3 0 2 25
-1 56 -7 67 -39 121 -99 164 -49 36 -62 38 -52 8z"/>
<path d="M3115 8880 c-8 -12 44 -38 222 -109 246 -99 339 -121 574 -137 77 -5
112 -3 129 6 19 10 21 14 8 21 -18 10 -291 79 -433 110 -55 11 -182 43 -283
70 -194 52 -207 54 -217 39z"/>
<path d="M7800 8861 c-115 -27 -481 -108 -520 -116 -109 -20 -316 -69 -325
-77 -20 -18 18 -25 113 -22 149 5 215 19 503 105 197 59 272 86 312 114 27 19
13 18 -83 -4z"/>
<path d="M2433 8852 c-79 -42 -147 -142 -141 -205 l3 -32 48 50 c55 57 114
143 123 180 7 29 8 29 -33 7z"/>
<path d="M8382 8800 c25 -43 154 -177 163 -169 11 11 -28 115 -53 142 -29 31
-92 67 -117 67 -13 0 -12 -7 7 -40z"/>
<path d="M5060 8794 c0 -4 34 -57 75 -119 93 -137 125 -210 216 -490 40 -121
76 -224 81 -230 15 -17 8 66 -18 208 -42 235 -65 300 -156 444 -52 83 -198
220 -198 187z"/>
<path d="M7895 8795 c-5 -2 -22 -6 -37 -9 -53 -12 -27 -22 90 -35 64 -8 144
-17 177 -21 33 -4 64 -4 68 0 12 10 -32 36 -93 54 -47 14 -176 21 -205 11z"/>
<path d="M2585 8769 c-29 -5 -49 -17 -76 -48 -39 -43 -94 -139 -85 -148 8 -8
96 59 145 111 76 79 79 96 16 85z"/>
<path d="M2853 8746 c-67 -25 -118 -54 -109 -63 2 -3 42 0 87 6 45 6 112 11
148 11 36 1 92 6 125 13 49 10 56 14 43 25 -14 12 -150 32 -207 31 -14 0 -53
-10 -87 -23z"/>
<path d="M5849 8717 c-47 -55 -122 -165 -147 -213 -32 -63 -89 -252 -106 -349
-18 -104 -25 -225 -14 -225 4 0 16 33 28 73 38 135 112 362 137 422 14 33 54
118 90 189 35 71 61 132 56 137 -4 4 -24 -11 -44 -34z"/>
<path d="M6340 8633 c-184 -102 -296 -200 -428 -375 -83 -111 -169 -308 -134
-308 6 0 32 31 56 69 102 156 362 438 530 576 31 25 47 46 45 57 -3 14 -13 12
-69 -19z"/>
<path d="M4596 8651 c-3 -4 30 -38 73 -75 174 -146 460 -469 578 -653 10 -16
12 -14 12 18 1 44 -61 168 -155 313 -81 125 -103 148 -231 248 -157 121 -260
177 -277 149z"/>
<path d="M7942 8601 c5 -24 102 -72 188 -93 121 -29 130 -22 46 36 -53 36
-119 59 -199 69 -31 4 -38 2 -35 -12z"/>
<path d="M2919 8599 c-30 -8 -148 -85 -166 -108 -6 -9 -8 -20 -3 -24 12 -13
330 106 330 123 0 20 -102 25 -161 9z"/>
<path d="M6825 8599 c-98 -13 -236 -46 -305 -75 -200 -81 -406 -218 -446 -295
-20 -40 -18 -44 14 -23 146 97 349 199 552 278 80 32 171 68 203 80 32 13 58
27 58 32 1 12 -8 12 -76 3z"/>
<path d="M4125 8580 c-3 -6 6 -15 22 -21 244 -93 584 -238 688 -294 44 -23 91
-46 105 -50 23 -7 23 -6 -10 31 -41 47 -191 153 -281 199 -71 36 -271 106
-371 130 -73 17 -144 19 -153 5z"/>
<path d="M8307 8583 c-9 -9 10 -40 86 -138 74 -97 107 -127 107 -101 0 35 -45
131 -78 168 -36 40 -105 82 -115 71z"/>
<path d="M8640 8553 c0 -32 57 -211 74 -232 29 -37 25 144 -5 201 -31 60 -69
77 -69 31z"/>
<path d="M2640 8500 c-19 -10 -42 -26 -51 -36 -28 -33 -83 -143 -76 -151 12
-11 146 128 158 165 6 18 9 35 7 37 -1 2 -19 -5 -38 -15z"/>
<path d="M2373 8469 c-23 -16 -51 -44 -62 -63 -24 -37 -29 -116 -8 -116 12 0
120 188 115 201 -2 4 -22 -6 -45 -22z"/>
<path d="M5486 8368 c-18 -227 -18 -428 -1 -624 19 -214 36 -278 50 -182 13
94 13 576 -1 723 -7 77 -13 146 -13 153 -1 6 -7 12 -15 12 -9 0 -15 -23 -20
-82z"/>
<path d="M2970 8395 c-25 -8 -72 -36 -105 -62 -33 -27 -75 -59 -92 -71 -18
-13 -33 -30 -33 -38 0 -17 4 -17 28 -4 9 5 51 25 92 45 77 38 145 93 153 126
3 11 4 19 4 18 -1 0 -22 -7 -47 -14z"/>
<path d="M8000 8403 c1 -16 178 -133 202 -133 56 0 1 66 -96 115 -48 24 -106
34 -106 18z"/>
<path d="M6365 8266 c-38 -12 -99 -36 -135 -54 -81 -38 -272 -191 -323 -257
-55 -72 -108 -178 -96 -196 7 -11 18 -3 51 36 125 149 367 338 566 441 49 25
69 40 60 46 -20 12 -47 9 -123 -16z"/>
<path d="M3935 8255 c-122 -17 -203 -34 -210 -46 -7 -10 -7 -10 105 -15 182
-7 316 -27 481 -69 136 -35 349 -110 443 -156 75 -37 122 -49 114 -30 -4 11
-104 92 -154 124 -106 70 -443 172 -664 201 -14 2 -65 -2 -115 -9z"/>
<path d="M6837 8254 c-156 -24 -361 -99 -510 -186 -98 -57 -163 -118 -127
-118 6 0 43 15 83 34 175 83 299 124 531 176 159 35 249 46 391 49 103 2 115
5 99 21 -38 38 -291 52 -467 24z"/>
<path d="M4550 8253 c0 -5 29 -23 64 -41 183 -95 321 -198 494 -370 62 -63
115 -112 118 -109 11 11 -35 100 -78 154 -26 32 -66 82 -89 111 -98 126 -347
262 -478 262 -17 0 -31 -3 -31 -7z"/>
<path d="M8600 8205 c0 -8 19 -64 41 -125 32 -85 46 -110 60 -110 16 0 17 6
13 53 -9 78 -23 116 -61 158 -37 41 -53 48 -53 24z"/>
<path d="M2388 8180 c-31 -25 -42 -45 -63 -116 -24 -80 -27 -123 -7 -110 13 8
101 159 113 194 6 18 7 37 2 46 -7 13 -14 11 -45 -14z"/>
<path d="M8047 8168 c4 -16 23 -32 62 -50 31 -16 73 -44 95 -63 41 -38 80 -50
55 -17 -41 55 -100 107 -144 128 -62 30 -73 30 -68 2z"/>
<path d="M8364 8148 c14 -53 28 -79 79 -143 45 -58 57 -65 57 -35 0 62 -25
116 -76 167 -29 29 -57 53 -62 53 -5 0 -4 -19 2 -42z"/>
<path d="M2869 8132 c-55 -26 -187 -125 -192 -143 -3 -12 22 -4 92 31 53 26
106 50 118 54 22 7 63 51 63 67 0 14 -42 10 -81 -9z"/>
<path d="M2603 8098 c-20 -18 -46 -42 -57 -53 -23 -22 -58 -114 -49 -128 7
-12 108 87 139 135 24 38 32 78 14 78 -5 0 -26 -15 -47 -32z"/>
<path d="M4244 8029 c-17 -6 -17 -7 6 -17 254 -108 430 -198 579 -297 69 -46
140 -97 158 -114 39 -38 45 -39 33 -6 -54 141 -348 366 -530 405 -100 21 -226
37 -246 29z"/>
<path d="M6620 8033 c-63 -11 -171 -48 -235 -81 -154 -77 -256 -164 -328 -279
-26 -41 -35 -83 -19 -83 5 0 46 32 93 71 161 136 357 262 504 324 39 17 74 35
76 40 4 11 -50 16 -91 8z"/>
<path d="M8841 7989 c0 -58 46 -190 69 -197 54 -18 6 187 -55 238 -13 11 -15
5 -14 -41z"/>
<path d="M7026 7989 c-135 -18 -312 -92 -401 -166 l-30 -26 40 5 c22 3 76 15
120 26 210 55 423 86 606 86 135 1 146 2 138 18 -13 24 -18 26 -95 42 -90 19
-291 27 -378 15z"/>
<path d="M2129 7974 c-26 -32 -41 -90 -39 -154 2 -66 5 -80 19 -80 16 0 51
131 51 190 0 62 -7 72 -31 44z"/>
<path d="M3790 7974 c-91 -11 -166 -26 -192 -40 -43 -22 -35 -36 20 -28 123
16 498 -34 727 -97 91 -25 103 -25 80 1 -30 33 -214 118 -305 140 -82 21 -253
33 -330 24z"/>
<path d="M5306 7923 c3 -32 7 -74 8 -93 2 -19 4 -131 5 -249 1 -209 1 -214 20
-197 36 33 62 123 68 242 5 97 3 120 -17 185 -25 84 -66 169 -80 169 -6 0 -8
-23 -4 -57z"/>
<path d="M2854 7930 c-71 -40 -184 -170 -149 -170 16 0 164 104 181 127 24 33
39 73 27 73 -4 0 -31 -13 -59 -30z"/>
<path d="M5687 7930 c-45 -53 -61 -121 -61 -265 -1 -140 18 -230 66 -305 l22
-35 7 35 c4 19 4 55 -1 80 -23 123 -20 341 6 488 8 40 -6 41 -39 2z"/>
<path d="M8100 7941 c0 -22 30 -48 114 -97 85 -49 97 -40 37 27 -69 77 -151
115 -151 70z"/>
<path d="M9100 7835 c-16 -20 -1 -246 17 -252 14 -5 31 50 39 128 5 45 2 63
-15 97 -24 48 -24 47 -41 27z"/>
<path d="M1900 7815 c-7 -8 -15 -46 -17 -83 -4 -54 -1 -77 17 -117 27 -62 35
-50 43 60 9 120 -9 180 -43 140z"/>
<path d="M8415 7793 c9 -48 112 -190 127 -175 17 17 -30 121 -76 170 -22 23
-44 42 -49 42 -5 0 -6 -17 -2 -37z"/>
<path d="M8674 7805 c-4 -17 4 -51 25 -104 55 -136 87 -161 78 -61 -4 44 -14
74 -42 119 -44 73 -52 80 -61 46z"/>
<path d="M2321 7791 c-1 -8 -11 -28 -24 -45 -13 -17 -31 -51 -40 -76 -16 -45
-26 -144 -15 -155 12 -13 72 91 89 153 15 56 15 69 4 101 -8 20 -14 30 -14 22z"/>
<path d="M2543 7761 c-27 -24 -49 -57 -62 -92 -25 -63 -25 -69 -8 -69 29 0
141 146 135 176 -5 29 -21 25 -65 -15z"/>
<path d="M1409 7757 c-33 -41 -55 -153 -38 -191 7 -14 15 -26 19 -26 13 0 58
180 56 228 0 29 -6 27 -37 -11z"/>
<path d="M9584 7766 c-6 -25 -4 -60 12 -173 4 -25 12 -43 19 -43 38 0 31 189
-9 228 -13 14 -16 12 -22 -12z"/>
<path d="M5043 7763 c3 -10 17 -51 31 -91 30 -85 43 -158 52 -295 6 -80 10
-97 22 -95 36 7 54 184 31 304 -12 59 -36 101 -92 162 -34 35 -52 42 -44 15z"/>
<path d="M5947 7761 c-74 -48 -113 -173 -104 -326 7 -113 33 -203 53 -182 4 3
10 67 15 141 11 175 22 239 53 310 37 83 34 91 -17 57z"/>
<path d="M8132 7737 c2 -23 12 -31 141 -116 46 -30 77 -39 77 -23 0 8 -95 107
-123 130 -20 15 -63 32 -83 32 -8 0 -13 -9 -12 -23z"/>
<path d="M9323 7668 c8 -110 18 -153 37 -153 24 0 44 111 30 160 -16 53 -37
85 -57 85 -14 0 -15 -11 -10 -92z"/>
<path d="M2800 7715 c-49 -25 -120 -111 -120 -145 0 -11 2 -20 5 -20 3 0 31
20 63 44 54 41 112 112 112 136 0 14 -7 12 -60 -15z"/>
<path d="M6729 7720 c-158 -19 -313 -99 -401 -207 -55 -67 -82 -123 -59 -123
6 0 44 27 84 59 39 32 92 71 117 85 75 44 232 122 283 141 42 16 60 37 40 47
-5 2 -33 1 -64 -2z"/>
<path d="M7014 7711 c-80 -19 -196 -70 -210 -92 -6 -11 19 -10 236 7 19 1 116
5 215 8 150 4 201 2 309 -15 70 -11 131 -17 135 -14 18 18 -116 69 -264 101
-115 25 -325 27 -421 5z"/>
<path d="M1668 7703 c-24 -28 -28 -116 -8 -181 10 -31 22 -58 27 -59 15 -5 23
47 23 142 0 113 -9 135 -42 98z"/>
<path d="M3705 7709 c-38 -5 -104 -18 -145 -28 -80 -20 -220 -78 -220 -92 0
-18 23 -18 102 1 124 30 413 45 574 30 70 -6 150 -15 177 -21 49 -9 67 -6 67
11 0 18 -147 79 -229 94 -89 17 -213 19 -326 5z"/>
<path d="M4244 7709 c-9 -15 2 -22 76 -55 131 -57 309 -166 426 -261 23 -18
44 -33 48 -33 22 0 -4 50 -66 128 -64 80 -84 96 -164 141 -89 50 -110 57 -286
86 -15 2 -30 0 -34 -6z"/>
<path d="M4835 7593 c60 -142 92 -270 115 -462 5 -46 12 -87 15 -89 18 -19 45
90 45 183 0 60 -45 247 -68 285 -41 66 -129 134 -107 83z"/>
<path d="M6156 7580 c-42 -37 -77 -96 -101 -170 -26 -79 -27 -267 -2 -333 10
-26 23 -45 28 -41 5 3 9 29 9 59 0 92 63 385 91 420 13 17 28 95 18 95 -4 0
-24 -14 -43 -30z"/>
<path d="M8935 7600 c-11 -18 7 -142 27 -187 17 -38 42 -63 52 -52 2 2 -1 41
-5 86 -11 108 -51 190 -74 153z"/>
<path d="M2092 7574 c-1 -6 -13 -16 -26 -23 -18 -10 -27 -28 -36 -71 -12 -58
-7 -130 9 -130 29 0 66 125 58 198 -2 20 -4 32 -5 26z"/>
<path d="M8170 7550 c10 -36 21 -49 88 -105 30 -25 63 -45 73 -45 18 0 17 5
-12 48 -46 68 -69 91 -111 113 -48 24 -48 24 -38 -11z"/>
<path d="M2813 7527 c-4 -8 -26 -26 -49 -40 -22 -14 -48 -36 -57 -48 -9 -13
-30 -39 -46 -58 -54 -59 -39 -66 41 -20 52 30 70 51 110 132 18 37 19 65 1 34z"/>
<path d="M6855 7513 c-108 -14 -298 -119 -356 -196 -42 -55 -68 -101 -69 -119
0 -10 2 -18 3 -18 2 0 24 19 48 41 44 42 214 159 229 159 5 0 37 13 72 29 35
16 91 39 126 51 35 13 67 30 71 39 8 14 1 16 -43 17 -28 1 -64 -1 -81 -3z"/>
<path d="M8416 7511 c-10 -16 6 -44 61 -108 73 -85 91 -83 51 5 -39 84 -93
134 -112 103z"/>
<path d="M4087 7492 c-26 -5 -16 -24 19 -35 80 -25 305 -142 442 -230 34 -22
65 -37 68 -34 8 8 -58 106 -98 144 -93 90 -332 176 -431 155z"/>
<path d="M2529 7453 c-53 -56 -79 -98 -79 -127 0 -30 10 -33 38 -8 78 68 134
172 93 172 -9 0 -33 -17 -52 -37z"/>
<path d="M8653 7468 c2 -7 11 -38 20 -68 18 -62 75 -161 96 -168 33 -11 -17
163 -61 214 -29 33 -65 47 -55 22z"/>
<path d="M1821 7436 c-27 -43 -39 -196 -16 -196 23 0 73 178 59 214 -9 24 -20
20 -43 -18z"/>
<path d="M7180 7463 c-70 -12 -180 -47 -177 -57 2 -6 41 -11 103 -13 216 -4
392 -33 623 -104 35 -10 64 -19 66 -19 2 0 1 8 -2 19 -12 47 -167 128 -302
156 -67 14 -265 25 -311 18z"/>
<path d="M9214 7425 c-8 -43 -1 -211 9 -222 4 -4 15 1 25 10 25 26 30 156 7
208 -22 48 -32 49 -41 4z"/>
<path d="M3638 7435 c-49 -8 -108 -21 -133 -30 -98 -33 -252 -126 -240 -144 3
-5 39 4 80 19 151 56 368 93 554 94 105 1 146 5 149 14 2 6 -4 12 -12 12 -9 0
-24 4 -34 9 -63 33 -244 46 -364 26z"/>
<path d="M2297 7379 c-29 -47 -40 -75 -43 -118 l-5 -56 29 33 c44 50 93 152
86 180 -10 36 -27 26 -67 -39z"/>
<path d="M4635 7363 c38 -97 90 -377 98 -536 5 -81 9 -93 26 -83 12 8 38 130
46 216 5 54 0 83 -26 174 -31 110 -59 167 -107 219 -29 31 -48 36 -37 10z"/>
<path d="M6376 7359 c-35 -28 -100 -162 -115 -239 -14 -68 -15 -272 -2 -324 5
-21 16 -43 23 -47 14 -9 21 28 31 166 8 112 26 202 64 322 41 134 41 155 -1
122z"/>
<path d="M5560 7308 c0 -93 16 -176 50 -259 29 -68 43 -88 64 -89 14 0 -1 78
-46 244 -47 176 -68 207 -68 104z"/>
<path d="M8211 7336 c17 -60 59 -124 110 -167 27 -23 52 -39 55 -37 2 3 -5 32
-17 64 -16 43 -37 74 -80 117 -68 66 -81 71 -68 23z"/>
<path d="M5426 7283 c-4 -43 -18 -122 -31 -176 -29 -113 -30 -133 -11 -140 16
-6 44 34 65 93 17 49 26 238 12 273 -18 45 -28 31 -35 -50z"/>
<path d="M6974 7311 c-144 -23 -258 -96 -338 -216 -36 -55 -18 -68 32 -23 100
91 247 153 435 184 59 10 107 21 107 24 0 27 -143 45 -236 31z"/>
<path d="M3931 7292 c-46 -14 -31 -28 56 -51 125 -32 274 -93 373 -150 46 -27
86 -48 88 -46 9 9 -77 122 -115 151 -22 17 -76 46 -120 65 -66 28 -91 34 -168
36 -49 1 -101 -1 -114 -5z"/>
<path d="M8880 7258 c1 -42 19 -92 54 -147 22 -34 30 -41 37 -30 16 30 -31
183 -62 199 -27 15 -29 13 -29 -22z"/>
<path d="M2104 7235 c-7 -19 -21 -51 -29 -71 -16 -38 -21 -144 -7 -144 18 0
71 108 77 157 11 88 -13 124 -41 58z"/>
<path d="M2735 7248 c-59 -41 -150 -168 -120 -168 10 0 98 66 128 97 71 71 66
122 -8 71z"/>
<path d="M8440 7253 c2 -29 92 -133 115 -133 8 0 15 5 15 10 0 14 -42 79 -69
108 -21 21 -61 31 -61 15z"/>
<path d="M2567 7239 c-32 -9 -44 -22 -87 -94 -35 -59 -36 -65 -10 -65 27 0 87
55 111 102 26 52 22 67 -14 57z"/>
<path d="M7295 7234 c-120 -24 -126 -26 -123 -42 3 -14 21 -18 98 -25 145 -12
256 -47 493 -156 84 -39 126 -49 140 -35 8 9 -125 117 -188 154 -76 43 -197
88 -254 95 -97 10 -146 13 -166 9z"/>
<path d="M6573 7209 c-68 -25 -135 -189 -158 -386 -8 -75 13 -234 33 -249 10
-7 20 -10 24 -6 4 4 10 52 13 107 13 195 46 354 102 487 19 45 15 58 -14 47z"/>
<path d="M3495 7186 c-57 -15 -133 -58 -214 -121 -64 -49 -137 -122 -130 -129
3 -3 66 26 140 64 183 92 370 149 496 151 26 0 56 4 66 8 18 6 18 8 2 21 -24
20 -291 24 -360 6z"/>
<path d="M4463 7173 c40 -79 88 -319 96 -478 5 -97 9 -120 21 -120 22 0 41
108 43 255 2 125 2 125 -36 210 -40 90 -57 115 -97 143 -35 24 -43 21 -27 -10z"/>
<path d="M8650 7176 c0 -54 97 -226 127 -226 17 0 17 2 -12 81 -28 78 -49 116
-79 141 -26 21 -36 22 -36 4z"/>
<path d="M9077 7173 c-15 -24 -16 -88 -3 -161 24 -138 57 -145 59 -14 1 87
-37 206 -56 175z"/>
<path d="M2333 7128 c-5 -7 -17 -33 -27 -58 -10 -25 -24 -57 -32 -72 -8 -14
-14 -36 -14 -49 0 -22 1 -22 30 6 38 36 80 108 90 152 7 30 6 33 -15 33 -12 0
-27 -6 -32 -12z"/>
<path d="M1921 7099 c-35 -57 -38 -239 -4 -197 22 26 53 119 53 158 0 74 -19
89 -49 39z"/>
<path d="M5755 7111 c-3 -6 15 -81 41 -168 60 -201 98 -251 96 -126 -1 48 -10
77 -55 174 -55 116 -70 138 -82 120z"/>
<path d="M7073 7095 c-113 -25 -242 -98 -243 -139 0 -22 13 -20 115 19 135 52
293 67 430 42 39 -7 81 -11 94 -9 22 3 20 6 -20 33 -96 64 -236 84 -376 54z"/>
<path d="M5281 7079 c-30 -30 -110 -198 -118 -244 -4 -26 -2 -36 11 -41 25
-10 45 14 62 75 8 31 29 91 45 134 34 88 34 112 0 76z"/>
<path d="M3830 7080 c-115 -13 -220 -46 -220 -69 0 -4 64 -11 143 -14 118 -6
307 -32 442 -62 l30 -7 -33 32 c-19 17 -40 29 -48 26 -8 -3 -14 1 -14 8 0 20
-188 99 -224 95 -6 -1 -40 -5 -76 -9z"/>
<path d="M2694 7020 c-20 -21 -51 -61 -68 -87 -17 -26 -42 -63 -56 -80 -48
-66 2 -49 87 30 47 44 76 91 88 145 9 43 -6 41 -51 -8z"/>
<path d="M8290 7019 c6 -31 21 -55 61 -96 100 -101 122 -97 55 12 -40 63 -98
125 -118 125 -3 0 -2 -18 2 -41z"/>
<path d="M4300 7011 c0 -10 7 -38 16 -62 21 -60 63 -312 71 -432 4 -59 11
-101 19 -108 20 -16 29 64 29 256 -1 165 -1 172 -30 235 -26 61 -79 130 -97
130 -4 0 -8 -8 -8 -19z"/>
<path d="M6710 7008 c-18 -13 -41 -39 -51 -58 -51 -98 -80 -318 -61 -463 17
-129 31 -120 48 31 18 159 51 323 80 399 32 86 39 113 27 113 -6 0 -25 -10
-43 -22z"/>
<path d="M2525 7000 c-61 -24 -159 -210 -111 -210 16 0 73 61 102 110 17 27
41 113 31 109 -1 0 -11 -4 -22 -9z"/>
<path d="M8470 7006 c0 -18 28 -70 63 -116 23 -30 43 -57 44 -59 2 -2 5 -2 8
1 13 12 -37 138 -62 157 -23 19 -53 28 -53 17z"/>
<path d="M8896 6964 c-10 -26 33 -142 65 -178 l28 -31 0 50 c-1 36 -10 67 -32
109 -34 64 -51 77 -61 50z"/>
<path d="M2108 6943 c-28 -32 -39 -63 -44 -121 -3 -31 -7 -67 -10 -79 -9 -43
25 -25 51 26 27 55 43 149 28 175 -9 16 -10 15 -25 -1z"/>
<path d="M7275 6904 c-110 -15 -226 -68 -233 -107 -5 -23 20 -22 93 4 48 18
82 22 175 21 167 0 311 -37 479 -123 52 -27 96 -49 98 -49 2 0 3 9 3 19 0 13
-28 41 -82 80 -97 71 -203 125 -273 139 -59 12 -217 22 -260 16z"/>
<path d="M8703 6881 c8 -37 91 -171 107 -171 17 0 11 32 -16 90 -27 59 -48 86
-78 102 -17 9 -18 7 -13 -21z"/>
<path d="M3585 6895 c-5 -1 -37 -11 -70 -20 -117 -35 -218 -99 -320 -205 -49
-51 -49 -52 -20 -45 17 3 55 22 85 40 30 18 94 49 141 68 193 78 321 101 461
81 78 -11 95 -11 107 1 11 11 9 16 -17 29 -53 27 -198 56 -280 55 -42 0 -81
-2 -87 -4z"/>
<path d="M5995 6859 c2 -19 7 -56 10 -84 11 -89 37 -229 47 -247 5 -10 18 -18
29 -18 19 0 20 4 14 63 -13 128 -53 273 -85 302 -18 16 -19 16 -15 -16z"/>
<path d="M2272 6863 c-21 -18 -72 -156 -72 -195 0 -21 1 -21 29 7 17 15 45 58
64 94 29 54 33 70 24 89 -12 27 -19 27 -45 5z"/>
<path d="M5037 6843 c-29 -48 -62 -131 -82 -208 -14 -53 -13 -61 1 -75 14 -13
17 -13 29 3 7 10 19 48 25 85 13 71 55 198 72 220 8 8 6 12 -6 12 -9 0 -26
-17 -39 -37z"/>
<path d="M8320 6825 c0 -60 125 -252 164 -252 9 0 16 1 16 3 0 1 -13 31 -29
66 -26 58 -151 209 -151 183z"/>
<path d="M5516 6811 c-4 -6 -10 -48 -13 -93 -5 -70 -3 -86 11 -97 29 -24 38 0
35 93 -4 80 -18 122 -33 97z"/>
<path d="M2652 6758 c-47 -57 -115 -168 -108 -175 7 -7 58 22 87 49 25 24 74
147 67 168 -2 6 -23 -13 -46 -42z"/>
<path d="M2483 6715 c-12 -8 -31 -31 -43 -50 -22 -36 -53 -135 -45 -144 9 -8
57 43 78 84 15 30 40 125 33 125 -1 0 -11 -7 -23 -15z"/>
<path d="M8520 6724 c0 -23 58 -119 87 -144 31 -28 37 -30 45 -16 11 20 -20
92 -53 123 -24 21 -79 48 -79 37z"/>
<path d="M8660 6718 c0 -35 69 -164 99 -186 l31 -23 0 23 c0 37 -62 149 -97
176 -25 19 -33 21 -33 10z"/>
<path d="M5332 6669 c-24 -64 -33 -128 -22 -148 23 -43 45 -11 55 80 6 53 4
67 -9 78 -13 11 -17 10 -24 -10z"/>
<path d="M6204 6668 c3 -13 8 -63 10 -113 8 -146 50 -277 75 -236 30 48 7 184
-54 319 -25 54 -39 68 -31 30z"/>
<path d="M2333 6662 c-31 -24 -115 -180 -111 -206 3 -19 8 -16 50 26 48 50 83
111 94 166 7 36 -1 40 -33 14z"/>
<path d="M5691 6642 c-14 -51 -6 -105 19 -127 17 -16 19 -15 30 5 13 24 -2
115 -24 146 -13 17 -15 15 -25 -24z"/>
<path d="M4802 6578 c-27 -44 -58 -149 -66 -223 -6 -54 -5 -61 14 -73 18 -11
21 -10 29 10 5 13 19 77 30 143 12 66 24 132 27 148 8 37 -10 34 -34 -5z"/>
<path d="M5132 6543 c-12 -10 -31 -41 -42 -70 l-20 -52 24 -28 c35 -41 53 -20
61 72 9 92 6 102 -23 78z"/>
<path d="M8374 6523 c2 -10 7 -28 11 -40 7 -26 142 -153 162 -153 20 0 16 11
-22 65 -31 43 -137 145 -151 145 -3 0 -3 -8 0 -17z"/>
<path d="M5886 6510 c-4 -14 -3 -59 1 -100 9 -87 29 -101 51 -35 16 49 9 91
-22 130 l-24 30 -6 -25z"/>
<path d="M2600 6473 c-19 -25 -47 -60 -62 -78 -34 -39 -34 -45 -7 -45 28 0 76
35 93 68 15 31 28 102 18 102 -4 -1 -23 -21 -42 -47z"/>
<path d="M6428 6428 c-3 -7 -1 -31 5 -53 5 -22 7 -103 4 -180 -2 -77 -2 -146
0 -152 11 -30 42 -12 59 32 29 77 1 274 -49 346 -11 14 -16 17 -19 7z"/>
<path d="M2405 6378 c-49 -42 -108 -135 -98 -153 20 -34 136 85 149 153 8 41
-5 41 -51 0z"/>
<path d="M8599 6393 c6 -10 12 -29 15 -43 8 -32 138 -131 153 -116 9 9 -55 91
-105 134 -54 45 -79 55 -63 25z"/>
<path d="M4585 6370 c-42 -82 -63 -321 -29 -334 40 -15 43 -1 48 174 2 74 7
147 11 163 10 37 -10 36 -30 -3z"/>
<path d="M4896 6343 c-26 -52 -29 -107 -8 -133 31 -38 42 -18 42 76 0 88 -9
104 -34 57z"/>
<path d="M6116 6318 c-13 -62 -14 -188 -1 -198 32 -27 65 90 44 159 -16 53
-36 72 -43 39z"/>
<path d="M8425 6319 c16 -51 36 -78 85 -113 78 -56 92 -46 38 24 -18 23 -55
58 -82 78 -46 34 -48 35 -41 11z"/>
<path d="M2550 6272 c-30 -30 -72 -68 -94 -83 -32 -24 -35 -30 -22 -35 26 -10
115 36 143 73 24 31 48 104 34 102 -3 -1 -31 -26 -61 -57z"/>
<path d="M5429 6285 c-29 -65 -35 -134 -15 -173 11 -21 21 -29 31 -26 12 5 15
29 15 125 0 65 -3 119 -6 119 -3 0 -14 -20 -25 -45z"/>
<path d="M5622 6285 c-11 -42 -10 -190 1 -201 3 -4 18 -4 32 0 24 6 25 9 25
79 -1 56 -6 82 -24 117 l-24 45 -10 -40z"/>
<path d="M5231 6180 c-5 -17 -13 -56 -16 -88 -7 -56 -6 -57 23 -74 25 -15 31
-16 35 -4 7 19 -15 196 -24 196 -4 0 -12 -14 -18 -30z"/>
<path d="M4711 6169 c-13 -37 -14 -158 -3 -177 16 -25 42 -2 42 37 0 66 -13
171 -20 171 -5 0 -13 -14 -19 -31z"/>
<path d="M5822 6153 c-6 -21 -13 -61 -17 -89 -5 -40 -3 -53 10 -64 15 -12 19
-12 31 4 21 30 28 103 14 147 -7 21 -16 39 -20 39 -4 0 -12 -17 -18 -37z"/>
<path d="M6286 6168 c-3 -13 -6 -57 -6 -99 0 -61 4 -82 19 -100 l19 -24 8 30
c12 46 9 136 -5 178 -14 42 -26 47 -35 15z"/>
<path d="M8490 6096 c0 -25 42 -63 103 -96 62 -34 117 -53 117 -42 0 13 -102
95 -154 123 -59 33 -66 34 -66 15z"/>
<path d="M2501 6068 c-24 -18 -69 -50 -100 -70 -107 -70 -117 -91 -29 -63 117
38 182 90 176 141 l-3 26 -44 -34z"/>
<path d="M4995 6047 c-9 -15 -19 -53 -22 -85 -5 -57 -4 -60 24 -80 17 -12 33
-18 37 -15 8 9 -4 173 -14 192 -6 11 -11 8 -25 -12z"/>
<path d="M6056 6028 c-31 -148 -32 -158 -7 -158 29 0 51 38 51 87 0 69 -33
122 -44 71z"/>
<path d="M5525 5938 c-6 -27 -28 -298 -29 -348 0 -37 32 -112 50 -117 17 -5
37 51 36 101 -1 24 -6 72 -11 107 -5 35 -13 110 -16 167 -7 99 -19 137 -30 90z"/>
<path d="M6235 5843 c-13 -144 -13 -145 12 -149 18 -3 23 3 32 47 16 74 13
120 -9 157 -11 17 -21 32 -23 32 -2 0 -8 -39 -12 -87z"/>
<path d="M4510 5818 c0 -85 4 -109 20 -135 11 -18 27 -33 36 -33 13 0 15 7 11
33 -3 17 -11 66 -18 107 -25 159 -49 173 -49 28z"/>
<path d="M4767 5846 c-20 -71 -7 -142 29 -158 34 -16 39 -5 26 50 -7 26 -15
73 -18 105 -4 31 -10 57 -14 57 -4 0 -14 -24 -23 -54z"/>
<path d="M8596 5888 c47 -81 65 -97 141 -126 84 -32 153 -48 153 -35 0 4 -39
31 -86 58 -47 28 -110 65 -141 83 -58 34 -79 40 -67 20z"/>
<path d="M2405 5839 c-43 -30 -157 -89 -217 -113 -47 -18 -51 -46 -8 -46 48 0
149 53 214 112 66 60 73 89 11 47z"/>
<path d="M6505 5838 c-2 -7 -15 -46 -29 -86 -14 -40 -26 -82 -26 -92 0 -20 37
-37 51 -23 15 15 36 127 31 171 -4 40 -18 56 -27 30z"/>
<path d="M5778 5670 c-89 -163 -110 -251 -67 -278 40 -25 50 -1 99 225 30 143
23 155 -32 53z"/>
<path d="M5256 5722 c-8 -13 9 -144 31 -240 14 -64 20 -75 50 -93 l35 -22 20
20 c20 20 20 20 0 59 -11 22 -41 91 -67 154 -49 120 -59 138 -69 122z"/>
<path d="M8770 5684 c25 -25 66 -57 92 -70 48 -25 168 -44 168 -28 0 13 -146
89 -210 109 -30 10 -59 21 -64 26 -6 5 -15 9 -20 9 -6 0 10 -21 34 -46z"/>
<path d="M2170 5624 c-30 -14 -85 -34 -122 -45 -37 -12 -70 -25 -73 -30 -9
-13 42 -22 91 -15 51 7 184 81 184 102 0 19 -16 17 -80 -12z"/>
<path d="M4960 5588 c0 -13 15 -50 33 -83 121 -220 132 -234 171 -219 18 7 23
69 6 79 -5 3 -51 60 -101 125 -51 66 -96 120 -100 120 -5 0 -9 -10 -9 -22z"/>
<path d="M6023 5554 c-67 -76 -140 -232 -123 -264 18 -34 42 -19 81 48 41 70
102 233 97 258 -2 12 -18 0 -55 -42z"/>
<path d="M4720 5425 c0 -30 173 -271 199 -278 31 -8 55 15 46 43 -4 13 -56 72
-116 132 -95 95 -129 122 -129 103z"/>
<path d="M6228 5367 c-123 -114 -172 -206 -117 -220 34 -9 42 -1 101 96 112
185 116 216 16 124z"/>
<path d="M5522 5263 c-5 -10 -12 -73 -16 -139 -6 -107 -5 -122 9 -128 9 -3 20
-6 25 -6 19 0 27 59 19 145 -4 50 -8 102 -8 118 -1 31 -16 36 -29 10z"/>
<path d="M5270 5173 c0 -16 10 -70 22 -120 21 -85 26 -94 52 -103 16 -5 33
-10 37 -10 16 0 3 67 -22 110 -15 25 -38 69 -53 98 -14 28 -29 52 -31 52 -3 0
-5 -12 -5 -27z"/>
<path d="M5774 5172 c-6 -4 -32 -39 -57 -78 -53 -82 -68 -142 -42 -164 29 -24
47 1 82 111 33 104 38 145 17 131z"/>
<path d="M4471 5153 c1 -31 224 -203 262 -203 13 0 32 9 41 19 14 16 15 23 5
38 -9 16 -285 163 -304 163 -3 0 -5 -8 -4 -17z"/>
<path d="M6477 5140 c-77 -33 -191 -110 -194 -131 -2 -8 5 -24 15 -36 l17 -23
75 51 c41 27 86 62 99 77 13 15 35 39 48 53 14 15 21 29 16 32 -5 3 -39 -8
-76 -23z"/>
<path d="M5010 5005 c0 -9 26 -49 58 -90 50 -66 61 -75 90 -75 49 0 42 32 -20
96 -58 59 -128 97 -128 69z"/>
<path d="M5953 4938 l-91 -72 19 -28 c14 -19 25 -25 38 -20 44 17 166 192 134
192 -4 0 -49 -33 -100 -72z"/>
<path d="M4270 4887 c0 -8 6 -19 13 -26 18 -14 190 -85 253 -104 49 -15 52
-14 79 7 61 49 12 76 -200 111 -49 8 -102 18 -117 21 -21 4 -28 2 -28 -9z"/>
<path d="M6705 4893 c-11 -2 -75 -25 -142 -50 -129 -49 -146 -64 -114 -102 17
-19 18 -19 102 22 75 38 199 120 199 132 0 6 -16 5 -45 -2z"/>
<path d="M5513 4845 c-12 -43 -8 -294 5 -307 14 -14 31 47 39 138 7 82 -2 153
-22 180 -13 18 -14 17 -22 -11z"/>
<path d="M4750 4767 c8 -9 53 -26 100 -38 47 -12 93 -25 102 -30 16 -9 68 7
68 20 -1 36 -56 54 -175 59 -99 4 -109 3 -95 -11z"/>
<path d="M6065 4752 c-42 -14 -51 -22 -53 -44 -5 -41 38 -45 134 -14 43 14 92
29 110 32 18 3 40 15 50 25 17 19 15 19 -87 18 -69 0 -121 -6 -154 -17z"/>
<path d="M5300 4753 c0 -45 56 -143 81 -143 20 0 7 50 -24 96 -31 45 -57 66
-57 47z"/>
<path d="M5690 4718 c-39 -43 -55 -115 -20 -93 14 9 55 74 64 103 11 32 -10
28 -44 -10z"/>
<path d="M5180 4638 c0 -25 86 -108 112 -108 25 0 22 17 -8 57 -24 32 -79 73
-96 73 -5 0 -8 -10 -8 -22z"/>
<path d="M4150 4622 c0 -16 44 -35 136 -57 60 -14 127 -30 148 -36 36 -10 41
-9 58 13 34 44 20 60 -62 77 -49 10 -280 12 -280 3z"/>
<path d="M5828 4609 c-23 -13 -69 -80 -62 -91 10 -16 64 23 84 62 21 41 14 50
-22 29z"/>
<path d="M6860 4613 c-183 -24 -290 -56 -290 -87 0 -7 9 -21 20 -31 19 -17 22
-16 92 13 40 17 101 40 135 52 34 12 64 29 68 37 7 19 6 20 -25 16z"/>
<path d="M4745 4572 c-93 -28 -115 -38 -115 -51 0 -14 85 -10 165 7 74 16 80
19 80 42 0 34 -22 35 -130 2z"/>
<path d="M6199 4586 c-2 -3 -18 -6 -34 -9 -21 -2 -31 -10 -33 -25 -3 -17 4
-23 40 -32 24 -6 49 -13 56 -15 25 -9 163 8 159 19 -6 18 -176 74 -188 62z"/>
<path d="M5355 4560 c-11 -17 56 -130 77 -130 15 0 8 55 -11 83 -23 36 -58 60
-66 47z"/>
<path d="M5670 4548 c-29 -31 -62 -96 -58 -115 2 -13 9 -11 35 11 18 15 42 43
54 62 19 32 20 37 7 51 -14 13 -18 12 -38 -9z"/>
<path d="M5060 4510 c0 -14 98 -60 128 -60 39 0 23 27 -29 49 -56 23 -99 27
-99 11z"/>
<path d="M5924 4481 c-40 -16 -94 -53 -94 -65 0 -23 120 15 153 49 37 37 11
45 -59 16z"/>
<path d="M5266 4483 c-3 -3 -6 -10 -6 -15 0 -17 97 -108 115 -108 16 0 16 2 0
28 -37 58 -95 109 -109 95z"/>
<path d="M5735 4435 c-66 -65 -59 -87 13 -41 48 30 66 52 58 71 -9 24 -24 18
-71 -30z"/>
<path d="M5537 4413 c-15 -24 -19 -94 -7 -123 26 -64 56 -16 38 62 -11 50 -23
74 -31 61z"/>
<path d="M5788 4351 c-18 -16 -30 -32 -26 -36 8 -8 120 37 122 50 0 6 -13 11
-31 13 -23 2 -40 -4 -65 -27z"/>
<path d="M5172 4353 c4 -22 56 -57 114 -77 42 -14 45 -14 42 1 -3 15 -130 92
-151 93 -5 0 -7 -8 -5 -17z"/>
<path d="M4035 4350 c-9 -14 31 -36 119 -64 100 -33 129 -33 150 -1 15 23 15
25 -6 39 -13 8 -69 19 -126 25 -125 13 -129 13 -137 1z"/>
<path d="M4956 4352 c-9 -15 36 -30 100 -35 79 -6 102 6 52 28 -40 16 -143 21
-152 7z"/>
<path d="M5967 4334 c-33 -18 -27 -34 14 -34 36 0 99 25 99 39 0 16 -81 12
-113 -5z"/>
<path d="M6830 4343 c-64 -5 -82 -17 -78 -52 2 -20 9 -27 32 -29 43 -5 246 60
246 79 0 9 -85 9 -200 2z"/>
<path d="M5597 4294 c-20 -41 -18 -49 11 -40 18 6 42 44 42 66 0 25 -37 6 -53
-26z"/>
<path d="M5437 4293 c-16 -16 -4 -31 34 -42 51 -16 58 -9 26 23 -26 26 -47 32
-60 19z"/>
<path d="M5813 4258 c-44 -14 -41 -24 7 -31 65 -9 120 2 120 24 0 16 -7 19
-47 18 -27 -1 -63 -6 -80 -11z"/>
<path d="M5655 4244 c-42 -21 -51 -32 -39 -44 21 -21 94 21 94 54 0 11 -25 6
-55 -10z"/>
<path d="M5959 4163 c-1 -54 -1 -105 0 -113 6 -116 25 -351 37 -449 16 -138
67 -420 89 -491 50 -158 62 -200 58 -200 -2 0 -16 15 -33 33 -27 30 -30 31
-46 15 -17 -17 -17 -18 0 -37 10 -11 34 -23 53 -28 33 -8 38 -14 60 -73 27
-77 27 -72 9 -68 -8 2 -15 0 -15 -4 -3 -29 2 -37 28 -48 24 -10 36 -28 67
-106 36 -92 38 -94 78 -104 23 -6 61 -18 85 -25 25 -8 49 -15 53 -15 5 0 -19
28 -54 63 -40 39 -75 86 -95 127 -49 102 -115 282 -110 302 3 10 1 20 -3 23
-11 7 -63 175 -57 182 3 2 10 -11 17 -31 10 -31 18 -37 73 -54 108 -34 99 -8
-23 63 l-77 46 -27 111 c-26 109 -30 155 -8 80 11 -37 15 -39 87 -62 41 -13
78 -21 81 -17 8 7 -14 37 -27 37 -5 0 -43 23 -86 51 -72 47 -79 54 -85 92 -4
23 -10 53 -13 67 -4 19 -3 21 5 10 5 -8 10 -25 10 -37 0 -15 6 -23 18 -23 16
0 104 -21 155 -36 25 -8 21 21 -5 38 -13 7 -48 25 -78 38 -110 49 -121 64
-134 190 -6 55 -3 58 8 9 5 -23 13 -28 53 -34 27 -3 70 -13 97 -21 27 -8 58
-14 68 -14 16 0 17 3 7 21 -12 23 -59 46 -166 80 -52 17 -73 29 -77 44 -10 34
-46 378 -41 383 3 3 5 -5 5 -17 0 -17 5 -20 23 -16 12 2 49 9 81 15 33 5 61
12 64 14 2 3 -10 12 -28 21 -21 11 -50 15 -93 13 -61 -3 -62 -3 -65 25 -2 15
-8 27 -13 27 -5 0 -10 -44 -10 -97z"/>
<path d="M5140 4242 c0 -20 43 -40 103 -47 62 -7 74 3 34 29 -29 20 -137 33
-137 18z"/>
<path d="M5395 4222 c-22 -23 35 -55 78 -44 16 4 17 6 2 22 -16 17 -70 32 -80
22z"/>
<path d="M4995 4210 c-28 -4 -66 -15 -84 -25 -47 -24 -25 -35 66 -33 63 2 72
4 77 22 8 29 7 46 -1 45 -5 -1 -31 -5 -58 -9z"/>
<path d="M5643 4148 c-13 -6 -23 -18 -23 -26 0 -11 10 -14 45 -9 52 5 60 10
52 32 -7 17 -42 19 -74 3z"/>
<path d="M5806 4141 c-7 -11 8 -17 77 -30 46 -8 48 -8 45 13 -3 18 -11 21 -60
24 -31 2 -59 -1 -62 -7z"/>
<path d="M5390 4120 c0 -17 7 -20 45 -20 32 0 45 4 45 14 0 17 -22 26 -61 26
-22 0 -29 -5 -29 -20z"/>
<path d="M5140 4116 c0 -27 81 -38 118 -17 12 7 7 12 -24 20 -55 15 -94 14
-94 -3z"/>
<path d="M4975 4065 c-111 -31 -168 -63 -117 -66 23 -1 177 2 178 4 1 1 4 19
7 40 6 42 6 42 -68 22z"/>
<path d="M5628 4063 c-10 -2 -18 -13 -18 -24 0 -15 7 -19 34 -19 35 0 71 24
61 41 -6 9 -46 10 -77 2z"/>
<path d="M6020 4036 l0 -33 98 -6 c53 -2 99 -3 101 -1 13 12 -38 44 -83 53
-125 23 -116 24 -116 -13z"/>
<path d="M5390 4043 c0 -15 15 -31 30 -33 40 -6 60 1 60 20 0 17 -7 20 -45 20
-25 0 -45 -3 -45 -7z"/>
<path d="M4058 4012 c-90 -31 -111 -47 -78 -57 25 -8 117 1 172 17 34 10 55
39 42 60 -9 14 -57 7 -136 -20z"/>
<path d="M6873 4012 c-10 -16 -9 -23 1 -31 17 -14 155 -26 191 -17 26 7 27 9
12 23 -9 9 -37 20 -64 24 -127 22 -127 22 -140 1z"/>
<path d="M5145 3980 l-30 -20 25 -1 c51 -3 116 3 135 14 19 10 19 10 0 18 -38
14 -99 9 -130 -11z"/>
<path d="M5790 3989 c0 -11 101 -59 125 -59 31 0 16 41 -20 56 -40 16 -105 19
-105 3z"/>
<path d="M5597 3973 c-18 -17 -5 -33 26 -33 38 0 62 13 53 29 -8 12 -68 15
-79 4z"/>
<path d="M5418 3963 c-25 -6 -22 -30 3 -36 26 -7 76 11 63 22 -13 12 -46 19
-66 14z"/>
<path d="M6354 3955 c-19 -15 -19 -15 0 -30 21 -16 99 -30 115 -20 20 12 11
23 -38 44 -59 25 -53 25 -77 6z"/>
<path d="M4610 3935 c-53 -22 -81 -47 -68 -60 11 -11 138 22 159 41 41 37 -19
49 -91 19z"/>
<path d="M6032 3907 l3 -42 65 -6 c36 -3 86 -10 113 -14 90 -14 47 31 -63 65
-36 11 -78 25 -93 30 -28 9 -28 9 -25 -33z"/>
<path d="M5593 3903 c-7 -2 -13 -11 -13 -19 0 -17 75 -20 86 -3 13 21 -38 37
-73 22z"/>
<path d="M5421 3881 c-22 -14 -3 -31 35 -31 27 0 34 4 34 20 0 15 -7 20 -27
20 -16 0 -34 -4 -42 -9z"/>
<path d="M5780 3862 c0 -12 114 -62 141 -62 33 0 18 32 -21 45 -54 19 -120 28
-120 17z"/>
<path d="M5148 3844 c-46 -24 -35 -38 25 -31 63 8 117 25 117 38 0 15 -113 9
-142 -7z"/>
<path d="M4036 3778 c-69 -48 -61 -62 24 -45 59 12 79 29 80 65 0 34 -36 27
-104 -20z"/>
<path d="M5567 3801 c-4 -15 2 -20 23 -23 31 -5 66 15 55 31 -3 6 -21 11 -39
11 -25 0 -35 -5 -39 -19z"/>
<path d="M5429 3794 c-10 -13 -10 -17 2 -25 31 -19 76 -2 66 25 -8 21 -51 21
-68 0z"/>
<path d="M6916 3801 c-13 -20 7 -38 58 -54 64 -20 156 -23 156 -4 0 37 -195
90 -214 58z"/>
<path d="M4940 3741 c-70 -19 -146 -58 -155 -80 -3 -8 0 -11 9 -8 15 6 102 23
168 32 29 5 39 11 44 30 10 40 2 44 -66 26z"/>
<path d="M5460 3720 c-32 -8 -38 -36 -9 -43 26 -7 59 8 59 27 0 18 -19 24 -50
16z"/>
<path d="M5567 3713 c-19 -19 -5 -33 33 -33 41 0 49 7 28 28 -13 13 -50 16
-61 5z"/>
<path d="M5195 3703 c-22 -5 -65 -42 -65 -55 0 -28 154 18 175 52 6 10 -71 12
-110 3z"/>
<path d="M5780 3683 c0 -9 117 -67 158 -78 17 -5 22 -2 22 14 0 26 -23 48 -57
55 -70 13 -123 16 -123 9z"/>
<path d="M5460 3623 c-17 -7 -30 -24 -25 -33 2 -3 20 -4 39 -2 27 3 36 9 36
23 0 19 -19 23 -50 12z"/>
<path d="M5568 3623 c-20 -5 -23 -18 -7 -28 17 -11 81 5 76 18 -4 13 -41 18
-69 10z"/>
<path d="M4493 3582 c-43 -27 -74 -72 -50 -72 24 0 137 54 142 69 7 17 6 18
-25 25 -17 3 -39 -4 -67 -22z"/>
<path d="M6455 3580 c-3 -6 4 -14 17 -19 13 -5 42 -17 65 -26 47 -19 76 -15
67 10 -13 33 -133 61 -149 35z"/>
<path d="M5572 3549 c-44 -16 -19 -39 43 -39 37 0 52 12 32 27 -19 16 -51 21
-75 12z"/>
<path d="M5443 3540 c-13 -5 -23 -17 -23 -26 0 -14 7 -16 41 -11 40 5 63 22
53 39 -7 10 -43 9 -71 -2z"/>
<path d="M5163 3527 c-18 -7 -40 -20 -50 -29 -16 -17 -16 -18 18 -18 43 0 123
26 140 46 10 12 5 14 -32 13 -24 0 -58 -6 -76 -12z"/>
<path d="M5780 3521 c0 -20 90 -68 168 -90 29 -9 32 -8 32 14 0 19 -11 27 -63
48 -78 31 -137 43 -137 28z"/>
<path d="M5574 3455 c-9 -23 12 -35 64 -35 65 0 48 35 -22 47 -28 4 -37 2 -42
-12z"/>
<path d="M5411 3441 c-9 -15 -7 -20 10 -24 36 -10 87 4 92 24 5 17 -1 19 -44
19 -37 0 -51 -4 -58 -19z"/>
<path d="M4865 3368 c-64 -25 -129 -66 -145 -91 -11 -18 -10 -19 7 -13 31 13
156 44 188 48 26 3 31 8 36 41 5 33 4 37 -15 36 -12 -1 -43 -10 -71 -21z"/>
<path d="M5613 3372 c-13 -2 -23 -6 -23 -10 1 -34 86 -56 108 -29 9 11 10 17
2 22 -19 12 -65 21 -87 17z"/>
<path d="M5396 3354 c-24 -23 -19 -34 13 -34 42 0 81 17 81 35 0 21 -73 20
-94 -1z"/>
<path d="M5830 3344 c0 -18 106 -77 158 -89 32 -6 39 -1 24 21 -11 16 -48 34
-71 34 -12 0 -21 4 -21 9 0 5 -14 14 -31 20 -36 12 -59 14 -59 5z"/>
<path d="M5110 3329 c-24 -10 -40 -26 -40 -41 0 -24 139 15 148 41 2 6 -9 11
-27 11 -18 0 -30 -5 -28 -11 1 -6 -4 -14 -12 -17 -10 -3 -12 0 -8 12 7 18 2
19 -33 5z"/>
<path d="M5397 3277 c-28 -9 -36 -32 -15 -39 21 -7 88 14 88 27 0 17 -39 24
-73 12z"/>
<path d="M5615 3270 c-7 -12 53 -40 84 -40 28 0 37 21 16 37 -22 15 -91 18
-100 3z"/>
<path d="M5368 3189 c-10 -5 -18 -19 -18 -30 0 -18 4 -20 33 -14 54 12 77 24
77 40 0 18 -64 21 -92 4z"/>
<path d="M5638 3193 c-46 -11 5 -43 68 -43 19 0 34 4 34 10 0 19 -69 41 -102
33z"/>
<path d="M5850 3181 c0 -12 100 -60 131 -64 42 -4 29 19 -26 46 -55 27 -105
35 -105 18z"/>
<path d="M6591 3166 c-15 -18 4 -32 92 -70 113 -50 128 -26 27 42 -66 44 -99
52 -119 28z"/>
<path d="M4390 3163 c-49 -8 -80 -25 -80 -45 0 -10 6 -21 13 -24 15 -5 118 29
147 49 21 14 21 14 -2 21 -24 6 -37 6 -78 -1z"/>
<path d="M5118 3154 c-51 -15 -64 -34 -25 -34 32 0 117 30 117 41 0 13 -37 10
-92 -7z"/>
<path d="M4828 3126 c-105 -50 -108 -58 -13 -50 44 4 81 7 81 8 7 6 13 76 7
75 -4 0 -38 -15 -75 -33z"/>
<path d="M5010 3113 c0 -48 54 -201 106 -299 66 -123 137 -222 220 -307 58
-60 68 -75 57 -85 -18 -17 -17 -49 2 -49 8 0 22 9 32 19 9 11 11 18 5 18 -7 0
-12 4 -12 10 0 5 25 -9 55 -32 32 -24 55 -49 55 -59 0 -11 7 -19 15 -19 8 0
15 9 15 19 0 12 23 36 63 64 34 25 77 60 95 77 29 28 34 30 48 16 22 -23 54
-20 54 3 0 11 -6 26 -14 34 -13 12 -10 19 16 51 25 30 36 37 56 33 51 -10 70
18 32 44 -18 13 -19 16 -5 39 8 14 20 37 27 51 9 22 15 25 28 16 26 -15 50 -2
43 23 -3 12 -11 24 -18 27 -9 3 -1 32 28 104 28 68 46 98 55 94 19 -7 28 26
10 39 -10 8 -14 23 -11 46 4 33 3 34 -11 16 -9 -11 -16 -25 -16 -31 0 -13 -60
-155 -90 -216 -78 -151 -225 -325 -334 -394 l-59 -37 -46 23 c-25 12 -86 61
-134 108 -131 127 -220 267 -345 541 -21 45 -21 45 -22 13z"/>
<path d="M5384 3106 c-39 -17 -53 -46 -23 -46 24 0 99 39 99 52 0 12 -41 9
-76 -6z"/>
<path d="M5615 3111 c-8 -14 49 -51 78 -51 43 0 41 19 -5 40 -48 22 -64 24
-73 11z"/>
<path d="M6389 3074 c-11 -14 -8 -20 21 -45 77 -64 146 -74 99 -15 -18 23 -90
76 -103 76 -2 0 -10 -7 -17 -16z"/>
<path d="M5428 3034 c-30 -16 -53 -50 -39 -58 13 -8 75 37 79 57 4 21 -4 21
-40 1z"/>
<path d="M5202 3010 c-67 -31 -84 -57 -31 -46 66 13 125 55 100 70 -4 3 -35
-8 -69 -24z"/>
<path d="M5786 3032 c-12 -19 134 -110 155 -96 18 11 8 25 -43 58 -55 35 -103
52 -112 38z"/>
<path d="M4555 3000 c-71 -41 -79 -49 -64 -66 10 -12 21 -9 71 18 32 18 66 43
74 56 14 21 13 22 -8 21 -13 0 -45 -13 -73 -29z"/>
<path d="M5602 3013 c4 -22 68 -46 83 -31 14 13 -31 48 -62 48 -18 0 -24 -5
-21 -17z"/>
<path d="M5464 2952 c-30 -24 -37 -51 -17 -59 19 -7 53 30 53 58 0 23 -9 24
-36 1z"/>
<path d="M5566 2955 c-7 -19 38 -49 60 -41 23 9 12 28 -23 43 -26 10 -32 10
-37 -2z"/>
<path d="M4800 2938 c-14 -11 -49 -34 -77 -50 -65 -37 -69 -53 -10 -44 81 13
108 26 123 62 8 18 14 38 14 44 0 16 -23 11 -50 -12z"/>
<path d="M6230 2942 c0 -27 32 -80 55 -90 63 -29 88 -3 32 35 -17 12 -44 32
-59 43 -16 12 -28 17 -28 12z"/>
<path d="M5521 2902 c-17 -42 0 -91 32 -92 12 0 8 85 -6 104 -13 17 -14 16
-26 -12z"/>
<path d="M6015 2889 c-7 -20 6 -38 28 -39 13 0 8 37 -7 49 -12 10 -16 8 -21
-10z"/>
<path d="M5044 2877 c-8 -21 2 -35 16 -21 5 5 6 15 0 24 -8 12 -10 12 -16 -3z"/>
<path d="M5267 2848 c-33 -30 -35 -35 -23 -51 13 -17 16 -16 50 18 63 62 39
91 -27 33z"/>
<path d="M5729 2853 c34 -63 121 -120 121 -80 0 15 -55 63 -97 86 -30 15 -35
14 -24 -6z"/>
<path d="M6889 2844 c-11 -13 -5 -22 42 -64 56 -51 66 -54 83 -28 12 20 -2 39
-58 80 -45 33 -49 33 -67 12z"/>
<path d="M4134 2836 c-11 -8 -33 -31 -48 -51 -22 -29 -25 -39 -16 -50 7 -8 17
-15 22 -15 15 0 108 98 108 115 0 19 -39 20 -66 1z"/>
<path d="M5039 2802 c-54 -6 -134 -112 -85 -112 19 0 106 59 113 76 9 25 -2
39 -28 36z"/>
<path d="M6030 2795 c0 -23 49 -65 76 -65 31 0 32 29 1 58 -27 26 -77 30 -77
7z"/>
<path d="M5092 2754 c-29 -20 -29 -44 1 -44 37 0 51 14 38 39 -14 25 -11 25
-39 5z"/>
<path d="M6671 2748 c0 -28 91 -101 114 -92 31 12 7 59 -49 93 -44 28 -66 27
-65 -1z"/>
<path d="M4328 2726 c-85 -65 -57 -107 31 -49 41 26 46 37 35 67 -9 22 -15 21
-66 -18z"/>
<path d="M5398 2722 c-32 -19 -53 -61 -39 -75 16 -16 58 18 66 53 9 40 6 42
-27 22z"/>
<path d="M6450 2722 c0 -4 20 -28 45 -52 38 -37 47 -42 55 -30 19 30 10 48
-33 69 -46 22 -67 26 -67 13z"/>
<path d="M5640 2710 c0 -38 78 -119 101 -105 16 11 -68 114 -93 115 -5 0 -8
-5 -8 -10z"/>
<path d="M4578 2694 c-26 -14 -47 -58 -34 -71 10 -11 86 49 86 68 0 23 -15 23
-52 3z"/>
<path d="M5957 2693 c-24 -23 40 -103 83 -103 17 0 18 3 9 28 -19 51 -73 95
-92 75z"/>
<path d="M5095 2672 c-33 -7 -74 -42 -101 -83 -13 -21 -24 -41 -24 -44 0 -9
73 25 106 50 17 13 35 36 38 51 8 31 7 32 -19 26z"/>
<path d="M5467 2633 c-31 -49 -36 -86 -10 -81 18 3 45 72 41 103 -3 16 -8 12
-31 -22z"/>
<path d="M5172 2645 c-27 -20 -30 -55 -4 -55 11 0 26 8 35 18 14 15 15 22 4
35 -11 16 -14 16 -35 2z"/>
<path d="M5546 2624 c-14 -35 23 -142 44 -129 11 7 0 84 -17 118 -16 32 -19
33 -27 11z"/>
<path d="M6120 2605 c-17 -20 -1 -38 65 -76 60 -34 75 -36 68 -8 -5 16 -101
99 -116 99 -3 0 -10 -7 -17 -15z"/>
<path d="M4879 2569 c-41 -24 -60 -51 -49 -69 6 -10 12 -10 32 1 14 8 44 24
67 37 22 12 41 29 41 37 0 22 -48 18 -91 -6z"/>
<path d="M5861 2552 c-8 -15 -4 -25 22 -49 64 -60 119 -85 97 -43 -10 18 -98
110 -106 110 -2 0 -8 -8 -13 -18z"/>
<path d="M5175 2540 c-26 -10 -83 -73 -95 -105 -16 -42 24 -31 80 21 61 57 69
105 15 84z"/>
<path d="M5267 2522 c-23 -26 -21 -42 6 -42 38 0 51 14 36 39 -17 26 -21 26
-42 3z"/>
<path d="M6055 2493 c3 -8 5 -19 5 -24 0 -13 77 -59 100 -59 29 0 25 14 -14
53 -36 36 -102 57 -91 30z"/>
<path d="M4985 2478 c-50 -37 -56 -53 -24 -61 26 -7 84 34 92 63 7 28 -29 26
-68 -2z"/>
<path d="M4296 2448 c-24 -20 -34 -34 -28 -40 12 -12 38 1 70 35 36 38 3 42
-42 5z"/>
<path d="M6750 2467 c0 -19 63 -77 83 -77 20 0 20 2 6 33 -17 39 -89 74 -89
44z"/>
<path d="M5763 2429 c-7 -7 -13 -20 -13 -29 0 -17 63 -84 71 -75 11 10 -4 63
-24 89 -18 22 -24 25 -34 15z"/>
<path d="M5281 2388 c-33 -45 -36 -71 -10 -76 19 -4 69 65 69 96 0 35 -25 26
-59 -20z"/>
<path d="M5664 2409 c-16 -17 -16 -22 -4 -29 21 -14 28 -12 38 8 10 18 6 42
-7 42 -4 0 -16 -9 -27 -21z"/>
<path d="M5467 2333 c-16 -28 -17 -72 -1 -87 24 -24 36 -7 32 44 -3 40 -19 63
-31 43z"/>
<path d="M5607 2333 c-10 -9 -8 -66 2 -82 16 -24 41 -5 41 32 0 41 -24 70 -43
50z"/>
<path d="M1760 1268 l0 -55 33 5 c41 6 57 19 57 47 0 28 -17 43 -58 51 l-32 7
0 -55z"/>
<path d="M1322 1279 c-17 -26 -15 -29 13 -29 28 0 30 7 12 32 -12 15 -14 15
-25 -3z"/>
</g>
</svg>
